<svg id="bandwidth-logo" xmlns="http://www.w3.org/2000/svg" viewBox="0 0 54.47 63.91" preserveAspectRatio="xMidYMin meet">
  <title>bandwidth-logo</title>
  <path xmlns="http://www.w3.org/2000/svg" class="logo-mark" d="M43.68,16.18c-2.23-.47-2.5.69-1.54,2.82,5.07,11.18.56,22.1-4.28,24.81a5.93,5.93,0,0,1-.13-1.1c-.57-5.31-2.59-9.92-4-9.92-1.08,0-.4,4.54-.7,8.56-1.79-1.06-2.89-1.8-4.8-1.47-2.75.48-6.38,6.27-6.52,5.44-1.09-6.71,1.52-17,5.14-18.13.56-.22,1.54.63,3.74,1.46,1.72.64,1.5-1.06.71-1.69a8.29,8.29,0,0,0-8.83-.62C17.09,29,14.62,41.05,17.55,46A7.72,7.72,0,0,0,23,49.75c3.65.42,4.76-.34,7.71-3.94a3.42,3.42,0,0,0,1.39.67c-2.4,7.45-11.38,13.73-13.32,12.65C9.38,52.73,12,32.3,18.63,14.33c1.08-2.92,2.86-8.09,3.24-10,1-4.85-5.14-5.78-9.33-2.23-3,2.57-6,8.59-8.35,15.57-7.6,22.18-4.37,40.93,9.24,45,15.66,4.67,23.11-5.07,24.27-14.86a21,21,0,0,0,2.88.15c4.85-.1,11.73-2.6,13.78-13.18C55.92,26.82,50.78,17.53,43.68,16.18Z" fill-rule="evenodd"/>
</svg>
