<?xml version="1.0" standalone="no"?>
<!DOCTYPE svg PUBLIC "-//W3C//DTD SVG 1.1//EN" "http://www.w3.org/Graphics/SVG/1.1/DTD/svg11.dtd" >
<!--
2016-9-8: Created with FontForge (http://fontforge.org)
-->
<svg xmlns="http://www.w3.org/2000/svg" xmlns:xlink="http://www.w3.org/1999/xlink" version="1.1">
<metadata>
Created by FontForge 20150603 at Thu Sep  8 13:00:18 2016
 By icons8

</metadata>
<defs>
<font id="Bandwidth" horiz-adv-x="512" >
  <font-face 
    font-family="Bandwidth"
    font-weight="400"
    font-stretch="normal"
    units-per-em="512"
    panose-1="2 0 5 3 0 0 0 0 0 0"
    ascent="448"
    descent="-64"
    bbox="-1.54102 -65.9199 515.52 448.517"
    underline-thickness="25.6"
    underline-position="-51.2"
    unicode-range="U+0020-F17E"
  />
    <missing-glyph />
    <glyph glyph-name="space" unicode=" " horiz-adv-x="200" 
 />
    <glyph glyph-name="code" unicode="&#xf12e;" 
d="M30.7197 417.28h450.561c16.8438 0 30.7197 -13.876 30.7197 -30.7207v-30.7197v-10.2402v-368.64v-10.2402h-10.2402h-491.52h-10.2402v10.2402v368.64v10.2402v30.7197c0 16.8447 13.876 30.7207 30.7197 30.7207zM30.7197 396.8
c-5.78516 0 -10.2393 -4.4541 -10.2393 -10.2402v-30.7197h471.039v30.7197c0 5.78613 -4.4541 10.2402 -10.2393 10.2402h-450.561zM20.4805 335.36v-348.16h471.039v348.16h-471.039zM296 294.72c0.339844 0.0419922 0.892578 0.0751953 1.23535 0.0751953
c5.65234 0 10.2412 -4.58789 10.2412 -10.2412c0 -1.22363 -0.411133 -3.12012 -0.916992 -4.2334l-92.1592 -225.28c-1.43555 -3.58789 -5.73633 -6.5 -9.60059 -6.5c-5.70703 0 -10.3389 4.63281 -10.3389 10.3398c0 1.09961 0.331055 2.81934 0.739258 3.83984
l92.1602 225.28c1.07422 2.86621 4.37207 5.7334 7.35938 6.40039c0.347656 0.110352 0.920898 0.253906 1.28027 0.319336zM163.2 233.28c0.486328 0.0849609 1.28125 0.154297 1.77539 0.154297c5.65234 0 10.2412 -4.58789 10.2412 -10.2402
c0 -3.74902 -2.80371 -7.97559 -6.25684 -9.43457l-56 -32l56 -32c2.87012 -1.63965 5.2002 -5.6543 5.2002 -8.95996c0 -5.69629 -4.62402 -10.3193 -10.3203 -10.3193c-1.5127 0 -3.80664 0.609375 -5.12012 1.35938l-71.6797 40.96
c-2.91504 1.61426 -5.28125 5.62793 -5.28125 8.95996s2.36621 7.34668 5.28125 8.95996l71.6797 40.96c0.90625 0.53418 2.4834 1.10742 3.52051 1.28027c0.260742 0.101562 0.69043 0.245117 0.959961 0.320312zM346.24 232.96
c0.493164 0.0888672 1.30176 0.160156 1.80371 0.160156c1.55371 0 3.90039 -0.645508 5.23633 -1.44043l71.6797 -40.96c2.91504 -1.61328 5.28125 -5.62793 5.28125 -8.95996s-2.36621 -7.3457 -5.28125 -8.95996l-71.6797 -40.96
c-1.31348 -0.75 -3.60742 -1.35938 -5.12012 -1.35938c-5.69629 0 -10.3203 4.62305 -10.3203 10.3193c0 3.30566 2.33008 7.32031 5.2002 8.95996l56 32l-56 32c-3.03418 1.58594 -5.49707 5.65234 -5.49707 9.07617c0 4.85645 3.89648 9.3916 8.69727 10.124z" />
    <glyph glyph-name="file-filled" unicode="&#xf142;" 
d="M311.296 427.52l129.024 -129.023v-342.016h-368.641v471.039h239.616zM307.2 294.4h108.544l-108.544 108.544v-108.544z" />
    <glyph glyph-name="help" unicode="&#xf148;" 
d="M256 405.333c117.333 0 213.333 -96 213.333 -213.333s-96 -213.333 -213.333 -213.333s-213.333 96 -213.333 213.333s96 213.333 213.333 213.333zM256 362.667c-93.8662 0 -170.667 -76.8008 -170.667 -170.667s76.8008 -170.667 170.667 -170.667
s170.667 76.8008 170.667 170.667s-76.8008 170.667 -170.667 170.667zM254 298.667c55.4668 0 66 -40.8008 66 -60c0 -51.2002 -42.667 -53.0674 -42.667 -89.334h-42.666c0 55.4668 42.666 44.5332 42.666 89.334c0 8.5332 -4.2666 28 -21.333 28
c-6.40039 0 -21.333 -2.13379 -21.333 -32h-42.667s-8.40039 64 62 64zM234.667 128h42.666v-42.667h-42.666v42.667z" />
    <glyph glyph-name="tv-show" unicode="&#xf174;" 
d="M0 376.32h10.2402h491.52h10.2402v-10.2402v-307.2v-10.2402h-10.2402h-491.52h-10.2402v10.2402v307.2v10.2402zM20.4805 355.84v-286.72h471.039v286.72h-471.039zM211.2 278.08c1.12793 0 2.51074 -0.381836 3.51953 -0.959961l112.641 -65.2803
c2.0166 -1.16699 3.19922 -3.10547 3.19922 -5.43945c0 -2.33496 -1.18262 -4.59277 -3.19922 -5.76074l-112.641 -65.2793c-1.00293 -0.583984 -2.40332 -0.640625 -3.51953 -0.640625c-1.12695 0 -2.19629 0.0566406 -3.2002 0.640625
c-2.01758 1.15723 -3.2002 3.4248 -3.2002 5.75977v130.24c0 2.32422 1.17285 4.60254 3.2002 5.75977c1.00391 0.578125 2.07227 0.959961 3.2002 0.959961zM110.72 28.1602c0.132812 0.00585938 0.347656 0.0107422 0.480469 0.0107422
s0.347656 -0.00488281 0.479492 -0.0107422c0.132812 0.00585938 0.347656 0.0107422 0.480469 0.0107422s0.347656 -0.00488281 0.479492 -0.0107422h286.721c0.0400391 0 0.104492 0.000976562 0.144531 0.000976562c5.65332 0 10.2412 -4.58789 10.2412 -10.2412
s-4.58789 -10.2412 -10.2412 -10.2412c-0.0400391 0 -0.104492 0.000976562 -0.144531 0.000976562h-286.721c-0.263672 -0.0244141 -0.694336 -0.0449219 -0.959961 -0.0449219c-5.67676 0 -10.2842 4.6084 -10.2842 10.2852c0 5.16992 4.17676 9.75781 9.32422 10.2402z
" />
    <glyph glyph-name="calendar-22" unicode="&#xf118;" 
d="M112.64 448h20.4805c5.34766 0 10.8594 -1.89941 14.7197 -5.75977c3.86133 -3.86133 5.75977 -9.37305 5.75977 -14.7207v-20.4795h204.801v20.4795c0 5.34766 1.89844 10.8594 5.75977 14.7207c3.86035 3.86035 9.37207 5.75977 14.7197 5.75977h20.4805
c5.34766 0 10.8584 -1.89941 14.7197 -5.75977c3.86035 -3.86133 5.75977 -9.37305 5.75977 -14.7207v-20.4795h71.6797c5.34766 0 10.8594 -1.89941 14.7207 -5.75977c3.86035 -3.86133 5.75977 -9.37305 5.75977 -14.7207v-430.079
c0 -5.34766 -1.89941 -10.8594 -5.75977 -14.7207c-3.86133 -3.86035 -9.37305 -5.75977 -14.7207 -5.75977h-471.039c-5.34766 0 -10.8594 1.89941 -14.7207 5.75977c-3.86035 3.86133 -5.75977 9.37305 -5.75977 14.7207v430.079
c0 5.34766 1.89941 10.8594 5.75977 14.7207c3.86133 3.86035 9.37305 5.75977 14.7207 5.75977h71.6797v20.4795c0 5.34766 1.89941 10.8594 5.75977 14.7207c3.86133 3.86035 9.37207 5.75977 14.7197 5.75977zM112.64 427.52v-61.4395h20.4805v61.4395h-20.4805z
M378.88 427.52v-61.4395h20.4805v61.4395h-20.4805zM20.4805 386.56v-81.9199h471.039v81.9199h-71.6797v-20.4795c0 -5.34766 -1.89941 -10.8594 -5.75977 -14.7197c-3.86133 -3.86133 -9.37207 -5.76074 -14.7197 -5.76074h-20.4805
c-5.34766 0 -10.8594 1.89941 -14.7197 5.76074c-3.86133 3.86035 -5.75977 9.37207 -5.75977 14.7197v20.4795h-204.801v-20.4795c0 -5.34766 -1.89844 -10.8594 -5.75977 -14.7197c-3.86035 -3.86133 -9.37207 -5.76074 -14.7197 -5.76074h-20.4805
c-5.34766 0 -10.8584 1.89941 -14.7197 5.76074c-3.86035 3.86035 -5.75977 9.37207 -5.75977 14.7197v20.4795h-71.6797zM20.4805 284.16v-327.68h471.039v327.68h-471.039zM181.12 219.52c55.2959 0 59.5195 -44.8633 59.5195 -54.0791
c0 -65.5361 -88 -67.7764 -98.2393 -114.881h97.2793v-20.4795h-122.88c2.04785 84.9922 99.3926 73.9199 101.44 135.36c0 5.11914 -4.35254 33.5996 -37.1201 33.5996c-34.8164 0 -36.7998 -40.8965 -36.7998 -47.04h-22.4004
c-2.04785 10.2402 -1.21582 67.5195 59.2002 67.5195zM327.68 219.52c55.2959 0 59.5205 -44.8633 59.5205 -54.0791c0 -65.5361 -88.3203 -67.7764 -98.5605 -114.881h97.2803v-20.4795h-122.88c2.04785 84.9922 99.3916 73.9199 101.44 135.36
c0 5.11914 -4.03223 33.5996 -36.8008 33.5996c-34.8154 0 -36.7998 -40.8965 -36.7998 -47.04h-22.7197c-2.04785 10.2402 0.12793 67.5195 59.5195 67.5195z" />
    <glyph glyph-name="calendar-23" unicode="&#xf119;" 
d="M112.64 448h20.4805c5.34766 0 10.8594 -1.89941 14.7197 -5.75977c3.86133 -3.86133 5.75977 -9.37305 5.75977 -14.7207v-20.4795h204.801v20.4795c0 5.34766 1.89844 10.8594 5.75977 14.7207c3.86035 3.86035 9.37207 5.75977 14.7197 5.75977h20.4805
c5.34766 0 10.8584 -1.89941 14.7197 -5.75977c3.86035 -3.86133 5.75977 -9.37305 5.75977 -14.7207v-20.4795h71.6797c5.34766 0 10.8594 -1.89941 14.7207 -5.75977c3.86035 -3.86133 5.75977 -9.37305 5.75977 -14.7207v-430.079
c0 -5.34766 -1.89941 -10.8594 -5.75977 -14.7207c-3.86133 -3.86035 -9.37305 -5.75977 -14.7207 -5.75977h-471.039c-5.34766 0 -10.8594 1.89941 -14.7207 5.75977c-3.86035 3.86133 -5.75977 9.37305 -5.75977 14.7207v430.079
c0 5.34766 1.89941 10.8594 5.75977 14.7207c3.86133 3.86035 9.37305 5.75977 14.7207 5.75977h71.6797v20.4795c0 5.34766 1.89941 10.8594 5.75977 14.7207c3.86133 3.86035 9.37207 5.75977 14.7197 5.75977zM112.64 427.52v-61.4395h20.4805v61.4395h-20.4805z
M378.88 427.52v-61.4395h20.4805v61.4395h-20.4805zM20.4805 386.56v-81.9199h471.039v81.9199h-71.6797v-20.4795c0 -5.34766 -1.89941 -10.8594 -5.75977 -14.7197c-3.86133 -3.86133 -9.37207 -5.76074 -14.7197 -5.76074h-20.4805
c-5.34766 0 -10.8594 1.89941 -14.7197 5.76074c-3.86133 3.86035 -5.75977 9.37207 -5.75977 14.7197v20.4795h-204.801v-20.4795c0 -5.34766 -1.89844 -10.8594 -5.75977 -14.7197c-3.86035 -3.86133 -9.37207 -5.76074 -14.7197 -5.76074h-20.4805
c-5.34766 0 -10.8584 1.89941 -14.7197 5.76074c-3.86035 3.86035 -5.75977 9.37207 -5.75977 14.7197v20.4795h-71.6797zM20.4805 284.16v-327.68h471.039v327.68h-471.039zM325.76 219.52c55.2959 0 57.2803 -41.7275 57.2803 -49.9199
c0 -22.5273 -18.4316 -33.9834 -25.5996 -38.0801v-0.959961c13.3115 -2.04785 33.5996 -13.3115 33.5996 -46.0791c0 -48.1289 -42.8164 -57.2803 -64.3203 -57.2803c-59.3916 0 -63.4238 47.1035 -62.3994 61.4395h22.3994c0 -12.2881 5.18457 -41.9199 40 -41.9199
c31.7441 0 40.96 24.5127 40.96 36.7998c0 28.6729 -25.6641 35.8408 -40 35.8408c-5.12012 0 -9.34375 0.0634766 -13.4395 -0.959961v19.1992h9.2793c29.6963 0 35.8408 20.4805 35.8408 30.7207c0 10.2393 -3.9043 30.7197 -33.6006 30.7197
c-34.8154 0 -35.8398 -35.8398 -35.8398 -40.96h-22.7197c0 9.21582 3.26367 61.4395 58.5596 61.4395zM180.16 218.56c55.2959 0 59.5195 -44.8633 59.5195 -54.0791c0 -65.5361 -88 -67.7764 -98.2393 -114.881h97.2793v-20.4795h-122.88
c2.04785 84.9922 99.0723 73.9199 101.12 135.36c0 5.11914 -4.03223 33.5996 -36.7998 33.5996c-34.8164 0 -36.7998 -40.8965 -36.7998 -47.04h-22.4004c-2.04785 10.2402 -0.192383 67.5195 59.2002 67.5195z" />
    <glyph glyph-name="calendar-20" unicode="&#xf116;" 
d="M112.64 448h20.4805c5.34766 0 10.8594 -1.89941 14.7197 -5.75977c3.86133 -3.86133 5.75977 -9.37305 5.75977 -14.7207v-20.4795h204.801v20.4795c0 5.34766 1.89844 10.8594 5.75977 14.7207c3.86035 3.86035 9.37207 5.75977 14.7197 5.75977h20.4805
c5.34766 0 10.8584 -1.89941 14.7197 -5.75977c3.86035 -3.86133 5.75977 -9.37305 5.75977 -14.7207v-20.4795h71.6797c5.34766 0 10.8594 -1.89941 14.7207 -5.75977c3.86035 -3.86133 5.75977 -9.37305 5.75977 -14.7207v-430.079
c0 -5.34766 -1.89941 -10.8594 -5.75977 -14.7207c-3.86133 -3.86035 -9.37305 -5.75977 -14.7207 -5.75977h-471.039c-5.34766 0 -10.8594 1.89941 -14.7207 5.75977c-3.86035 3.86133 -5.75977 9.37305 -5.75977 14.7207v430.079
c0 5.34766 1.89941 10.8594 5.75977 14.7207c3.86133 3.86035 9.37305 5.75977 14.7207 5.75977h71.6797v20.4795c0 5.34766 1.89941 10.8594 5.75977 14.7207c3.86133 3.86035 9.37207 5.75977 14.7197 5.75977zM112.64 427.52v-61.4395h20.4805v61.4395h-20.4805z
M378.88 427.52v-61.4395h20.4805v61.4395h-20.4805zM20.4805 386.56v-81.9199h471.039v81.9199h-71.6797v-20.4795c0 -5.34766 -1.89941 -10.8594 -5.75977 -14.7197c-3.86133 -3.86133 -9.37207 -5.76074 -14.7197 -5.76074h-20.4805
c-5.34766 0 -10.8594 1.89941 -14.7197 5.76074c-3.86133 3.86035 -5.75977 9.37207 -5.75977 14.7197v20.4795h-204.801v-20.4795c0 -5.34766 -1.89844 -10.8594 -5.75977 -14.7197c-3.86035 -3.86133 -9.37207 -5.76074 -14.7197 -5.76074h-20.4805
c-5.34766 0 -10.8584 1.89941 -14.7197 5.76074c-3.86035 3.86035 -5.75977 9.37207 -5.75977 14.7197v20.4795h-71.6797zM20.4805 284.16v-327.68h471.039v327.68h-471.039zM181.12 218.56c55.2959 0 59.5195 -44.8633 59.5195 -54.0791
c0 -65.5361 -88 -67.7764 -98.2393 -114.881h97.2793v-20.4795h-122.88c2.04785 84.9922 99.3926 73.9199 101.44 135.36c0 5.11914 -4.35254 33.5996 -37.1201 33.5996c-34.8164 0 -36.7998 -40.8965 -36.7998 -47.04h-22.4004
c-2.04785 10.2402 -0.192383 67.5195 59.2002 67.5195zM329.6 218.56c54.2725 0 62.7207 -47.168 62.7207 -96.3193c0 -41.9844 -4.35254 -95.04 -62.7207 -95.04c-55.2959 0 -62.3994 45.8877 -62.3994 95.04c0 48.1279 7.10352 96.3193 62.3994 96.3193zM329.6 198.08
c-19.4561 0 -38.7197 -13.376 -38.7197 -60.4805v-15.3594c0 -41.9844 5.95215 -75.5205 38.7197 -75.5205c22.5283 0 39.04 13.0566 39.04 75.5205v15.3594c0 46.0801 -18.5596 60.4805 -39.04 60.4805z" />
    <glyph glyph-name="calendar-21" unicode="&#xf117;" 
d="M112.64 448h20.4805c5.34766 0 10.8594 -1.89941 14.7197 -5.75977c3.86133 -3.86133 5.75977 -9.37305 5.75977 -14.7207v-20.4795h204.801v20.4795c0 5.34766 1.89844 10.8594 5.75977 14.7207c3.86035 3.86035 9.37207 5.75977 14.7197 5.75977h20.4805
c5.34766 0 10.8584 -1.89941 14.7197 -5.75977c3.86035 -3.86133 5.75977 -9.37305 5.75977 -14.7207v-20.4795h71.6797c5.34766 0 10.8594 -1.89941 14.7207 -5.75977c3.86035 -3.86133 5.75977 -9.37305 5.75977 -14.7207v-430.079
c0 -5.34766 -1.89941 -10.8594 -5.75977 -14.7207c-3.86133 -3.86035 -9.37305 -5.75977 -14.7207 -5.75977h-471.039c-5.34766 0 -10.8594 1.89941 -14.7207 5.75977c-3.86035 3.86133 -5.75977 9.37305 -5.75977 14.7207v430.079
c0 5.34766 1.89941 10.8594 5.75977 14.7207c3.86133 3.86035 9.37305 5.75977 14.7207 5.75977h71.6797v20.4795c0 5.34766 1.89941 10.8594 5.75977 14.7207c3.86133 3.86035 9.37207 5.75977 14.7197 5.75977zM112.64 427.52v-61.4395h20.4805v61.4395h-20.4805z
M378.88 427.52v-61.4395h20.4805v61.4395h-20.4805zM20.4805 386.56v-81.9199h471.039v81.9199h-71.6797v-20.4795c0 -5.34766 -1.89941 -10.8594 -5.75977 -14.7197c-3.86133 -3.86133 -9.37207 -5.76074 -14.7197 -5.76074h-20.4805
c-5.34766 0 -10.8594 1.89941 -14.7197 5.76074c-3.86133 3.86035 -5.75977 9.37207 -5.75977 14.7197v20.4795h-204.801v-20.4795c0 -5.34766 -1.89844 -10.8594 -5.75977 -14.7197c-3.86035 -3.86133 -9.37207 -5.76074 -14.7197 -5.76074h-20.4805
c-5.34766 0 -10.8584 1.89941 -14.7197 5.76074c-3.86035 3.86035 -5.75977 9.37207 -5.75977 14.7197v20.4795h-71.6797zM20.4805 284.16v-327.68h471.039v327.68h-471.039zM333.76 220.8h17.6006v-188.479h-22.7207v134.08h-48.96v18.5596
c49.1523 0 53.0566 28.6719 54.0801 35.8398zM180.16 219.52c55.2959 0 59.5195 -44.8633 59.5195 -54.0791c0 -65.5361 -88 -67.7764 -98.2393 -114.881h97.2793v-20.4795h-122.88c2.04785 84.9922 99.0723 73.9199 101.12 135.36
c0 5.11914 -4.03223 33.5996 -36.7998 33.5996c-34.8164 0 -36.7998 -40.8965 -36.7998 -47.04h-22.4004c-2.04785 10.2402 -0.192383 67.5195 59.2002 67.5195z" />
    <glyph glyph-name="calendar-26" unicode="&#xf11c;" 
d="M112.64 448h20.4805c5.34766 0 10.8594 -1.89941 14.7197 -5.75977c3.86133 -3.86133 5.75977 -9.37305 5.75977 -14.7207v-20.4795h204.801v20.4795c0 5.34766 1.89844 10.8594 5.75977 14.7207c3.86035 3.86035 9.37207 5.75977 14.7197 5.75977h20.4805
c5.34766 0 10.8584 -1.89941 14.7197 -5.75977c3.86035 -3.86133 5.75977 -9.37305 5.75977 -14.7207v-20.4795h71.6797c5.34766 0 10.8594 -1.89941 14.7207 -5.75977c3.86035 -3.86133 5.75977 -9.37305 5.75977 -14.7207v-430.079
c0 -5.34766 -1.89941 -10.8594 -5.75977 -14.7207c-3.86133 -3.86035 -9.37305 -5.75977 -14.7207 -5.75977h-471.039c-5.34766 0 -10.8594 1.89941 -14.7207 5.75977c-3.86035 3.86133 -5.75977 9.37305 -5.75977 14.7207v430.079
c0 5.34766 1.89941 10.8594 5.75977 14.7207c3.86133 3.86035 9.37305 5.75977 14.7207 5.75977h71.6797v20.4795c0 5.34766 1.89941 10.8594 5.75977 14.7207c3.86133 3.86035 9.37207 5.75977 14.7197 5.75977zM112.64 427.52v-61.4395h20.4805v61.4395h-20.4805z
M378.88 427.52v-61.4395h20.4805v61.4395h-20.4805zM20.4805 386.56v-81.9199h471.039v81.9199h-71.6797v-20.4795c0 -5.34766 -1.89941 -10.8594 -5.75977 -14.7197c-3.86133 -3.86133 -9.37207 -5.76074 -14.7197 -5.76074h-20.4805
c-5.34766 0 -10.8594 1.89941 -14.7197 5.76074c-3.86133 3.86035 -5.75977 9.37207 -5.75977 14.7197v20.4795h-204.801v-20.4795c0 -5.34766 -1.89844 -10.8594 -5.75977 -14.7197c-3.86035 -3.86133 -9.37207 -5.76074 -14.7197 -5.76074h-20.4805
c-5.34766 0 -10.8584 1.89941 -14.7197 5.76074c-3.86035 3.86035 -5.75977 9.37207 -5.75977 14.7197v20.4795h-71.6797zM20.4805 284.16v-327.68h471.039v327.68h-471.039zM180.16 218.56c55.2959 0 59.5195 -44.8633 59.5195 -54.0791
c0 -65.5361 -88 -67.7764 -98.2393 -114.881h97.2793v-20.4795h-122.88c2.04785 84.9922 99.0723 73.9199 101.12 135.36c0 5.11914 -4.03223 33.5996 -36.7998 33.5996c-34.8164 0 -36.7998 -40.8965 -36.7998 -47.04h-22.4004
c-1.02441 11.2637 -0.192383 67.5195 59.2002 67.5195zM336 217.6c44.0322 0 52.0957 -32.6396 53.1201 -48h-22.4004c-1.02344 10.2402 -7.42383 29.4404 -32 29.4404c-46.0801 0 -46.0801 -64.5117 -46.0801 -71.6797l1.28027 -0.959961
c5.12012 8.19141 18.3682 24.6396 47.04 24.6396c54.2725 0 57.2803 -52.2236 57.2803 -61.4404c0 -7.16797 -1.91992 -63.3594 -63.3604 -63.3594c-67.584 0 -64.6396 80.7041 -64.6396 89.9199c0 13.3115 -1.91992 101.439 69.7598 101.439zM331.84 132.48
c-36.8643 0 -39.04 -36.7363 -39.04 -42.8809c0 -6.14355 2.17578 -41.9199 39.04 -41.9199c34.8164 0 37.7598 35.7764 37.7598 41.9199c0 6.14453 -0.895508 42.8809 -37.7598 42.8809z" />
    <glyph glyph-name="calendar-27" unicode="&#xf11d;" 
d="M112.64 448h20.4805c5.34766 0 10.8594 -1.89941 14.7197 -5.75977c3.86133 -3.86133 5.75977 -9.37305 5.75977 -14.7207v-20.4795h204.801v20.4795c0 5.34766 1.89844 10.8594 5.75977 14.7207c3.86035 3.86035 9.37207 5.75977 14.7197 5.75977h20.4805
c5.34766 0 10.8584 -1.89941 14.7197 -5.75977c3.86035 -3.86133 5.75977 -9.37305 5.75977 -14.7207v-20.4795h71.6797c5.34766 0 10.8594 -1.89941 14.7207 -5.75977c3.86035 -3.86133 5.75977 -9.37305 5.75977 -14.7207v-430.079
c0 -5.34766 -1.89941 -10.8594 -5.75977 -14.7207c-3.86133 -3.86035 -9.37305 -5.75977 -14.7207 -5.75977h-471.039c-5.34766 0 -10.8594 1.89941 -14.7207 5.75977c-3.86035 3.86133 -5.75977 9.37305 -5.75977 14.7207v430.079
c0 5.34766 1.89941 10.8594 5.75977 14.7207c3.86133 3.86035 9.37305 5.75977 14.7207 5.75977h71.6797v20.4795c0 5.34766 1.89941 10.8594 5.75977 14.7207c3.86133 3.86035 9.37207 5.75977 14.7197 5.75977zM112.64 427.52v-61.4395h20.4805v61.4395h-20.4805z
M378.88 427.52v-61.4395h20.4805v61.4395h-20.4805zM20.4805 386.56v-81.9199h471.039v81.9199h-71.6797v-20.4795c0 -5.34766 -1.89941 -10.8594 -5.75977 -14.7197c-3.86133 -3.86133 -9.37207 -5.76074 -14.7197 -5.76074h-20.4805
c-5.34766 0 -10.8594 1.89941 -14.7197 5.76074c-3.86133 3.86035 -5.75977 9.37207 -5.75977 14.7197v20.4795h-204.801v-20.4795c0 -5.34766 -1.89844 -10.8594 -5.75977 -14.7197c-3.86035 -3.86133 -9.37207 -5.76074 -14.7197 -5.76074h-20.4805
c-5.34766 0 -10.8584 1.89941 -14.7197 5.76074c-3.86035 3.86035 -5.75977 9.37207 -5.75977 14.7197v20.4795h-71.6797zM20.4805 284.16v-327.68h471.039v327.68h-471.039zM180.16 218.56c55.2959 0 59.5195 -44.8633 59.5195 -54.0791
c0 -65.5361 -88 -67.7764 -98.2393 -114.881h97.2793v-20.4795h-122.88c2.04785 84.9922 99.0723 73.9199 101.12 135.36c0 5.11914 -4.03223 33.5996 -36.7998 33.5996c-34.8164 0 -36.7998 -40.8965 -36.7998 -47.04h-22.4004
c-2.04785 11.2637 -0.192383 67.5195 59.2002 67.5195zM268.16 215.68h121.92v-19.5195c-8.19238 -9.21582 -61.4404 -63.6797 -71.6797 -166.08h-25.6006c6.14453 92.1602 64.6406 153.6 74.8799 163.84h-99.5195v21.7598z" />
    <glyph glyph-name="calendar-24" unicode="&#xf11a;" 
d="M112.64 448h20.4805c5.34766 0 10.8594 -1.89941 14.7197 -5.75977c3.86133 -3.86133 5.75977 -9.37305 5.75977 -14.7207v-20.4795h204.801v20.4795c0 5.34766 1.89844 10.8594 5.75977 14.7207c3.86035 3.86035 9.37207 5.75977 14.7197 5.75977h20.4805
c5.34766 0 10.8584 -1.89941 14.7197 -5.75977c3.86035 -3.86133 5.75977 -9.37305 5.75977 -14.7207v-20.4795h71.6797c5.34766 0 10.8594 -1.89941 14.7207 -5.75977c3.86035 -3.86133 5.75977 -9.37305 5.75977 -14.7207v-430.079
c0 -5.34766 -1.89941 -10.8594 -5.75977 -14.7207c-3.86133 -3.86035 -9.37305 -5.75977 -14.7207 -5.75977h-471.039c-5.34766 0 -10.8594 1.89941 -14.7207 5.75977c-3.86035 3.86133 -5.75977 9.37305 -5.75977 14.7207v430.079
c0 5.34766 1.89941 10.8594 5.75977 14.7207c3.86133 3.86035 9.37305 5.75977 14.7207 5.75977h71.6797v20.4795c0 5.34766 1.89941 10.8594 5.75977 14.7207c3.86133 3.86035 9.37207 5.75977 14.7197 5.75977zM112.64 427.52v-61.4395h20.4805v61.4395h-20.4805z
M378.88 427.52v-61.4395h20.4805v61.4395h-20.4805zM20.4805 386.56v-81.9199h471.039v81.9199h-71.6797v-20.4795c0 -5.34766 -1.89941 -10.8594 -5.75977 -14.7197c-3.86133 -3.86133 -9.37207 -5.76074 -14.7197 -5.76074h-20.4805
c-5.34766 0 -10.8594 1.89941 -14.7197 5.76074c-3.86133 3.86035 -5.75977 9.37207 -5.75977 14.7197v20.4795h-204.801v-20.4795c0 -5.34766 -1.89844 -10.8594 -5.75977 -14.7197c-3.86035 -3.86133 -9.37207 -5.76074 -14.7197 -5.76074h-20.4805
c-5.34766 0 -10.8584 1.89941 -14.7197 5.76074c-3.86035 3.86035 -5.75977 9.37207 -5.75977 14.7197v20.4795h-71.6797zM20.4805 284.16v-327.68h471.039v327.68h-471.039zM180.16 219.52c55.2959 0 59.5195 -44.8633 59.5195 -54.0791
c0 -65.5361 -88 -67.7764 -98.2393 -114.881h97.2793v-20.4795h-122.88c2.04785 84.9922 99.0723 73.9199 101.12 135.36c0 5.11914 -4.03223 33.5996 -36.7998 33.5996c-34.8164 0 -36.7998 -40.8965 -36.7998 -47.04h-22.4004
c-1.02441 10.2402 -0.192383 67.5195 59.2002 67.5195zM349.12 219.52h18.5596v-124.8h25.6006v-19.5195h-25.6006v-43.8398h-21.4395v43.8398h-83.2002v21.4395zM346.24 186.88l-63.6807 -92.1602h63.6807v92.1602z" />
    <glyph glyph-name="calendar-25" unicode="&#xf11b;" 
d="M112.64 448h20.4805c5.34766 0 10.8594 -1.89941 14.7197 -5.75977c3.86133 -3.86133 5.75977 -9.37305 5.75977 -14.7207v-20.4795h204.801v20.4795c0 5.34766 1.89844 10.8594 5.75977 14.7207c3.86035 3.86035 9.37207 5.75977 14.7197 5.75977h20.4805
c5.34766 0 10.8584 -1.89941 14.7197 -5.75977c3.86035 -3.86133 5.75977 -9.37305 5.75977 -14.7207v-20.4795h71.6797c5.34766 0 10.8594 -1.89941 14.7207 -5.75977c3.86035 -3.86133 5.75977 -9.37305 5.75977 -14.7207v-430.079
c0 -5.34766 -1.89941 -10.8594 -5.75977 -14.7207c-3.86133 -3.86035 -9.37305 -5.75977 -14.7207 -5.75977h-471.039c-5.34766 0 -10.8594 1.89941 -14.7207 5.75977c-3.86035 3.86133 -5.75977 9.37305 -5.75977 14.7207v430.079
c0 5.34766 1.89941 10.8594 5.75977 14.7207c3.86133 3.86035 9.37305 5.75977 14.7207 5.75977h71.6797v20.4795c0 5.34766 1.89941 10.8594 5.75977 14.7207c3.86133 3.86035 9.37207 5.75977 14.7197 5.75977zM112.64 427.52v-61.4395h20.4805v61.4395h-20.4805z
M378.88 427.52v-61.4395h20.4805v61.4395h-20.4805zM20.4805 386.56v-81.9199h471.039v81.9199h-71.6797v-20.4795c0 -5.34766 -1.89941 -10.8594 -5.75977 -14.7197c-3.86133 -3.86133 -9.37207 -5.76074 -14.7197 -5.76074h-20.4805
c-5.34766 0 -10.8594 1.89941 -14.7197 5.76074c-3.86133 3.86035 -5.75977 9.37207 -5.75977 14.7197v20.4795h-204.801v-20.4795c0 -5.34766 -1.89844 -10.8594 -5.75977 -14.7197c-3.86035 -3.86133 -9.37207 -5.76074 -14.7197 -5.76074h-20.4805
c-5.34766 0 -10.8584 1.89941 -14.7197 5.76074c-3.86035 3.86035 -5.75977 9.37207 -5.75977 14.7197v20.4795h-71.6797zM20.4805 284.16v-327.68h471.039v327.68h-471.039zM181.12 219.52c55.2959 0 59.5195 -44.8633 59.5195 -54.0791
c0 -65.5361 -88 -67.7764 -98.2393 -114.881h97.2793v-20.4795h-122.88c2.04785 84.9922 99.3926 73.9199 101.44 135.36c0 5.11914 -4.35254 33.5996 -37.1201 33.5996c-34.8164 0 -36.7998 -40.8965 -36.7998 -47.04h-22.4004
c-2.04785 10.2402 -1.21582 67.5195 59.2002 67.5195zM288.64 217.6h93.4404v-20.4795h-76.7998v-0.959961l-10.2402 -54.4004l0.959961 -0.959961c4.0957 5.12012 15.4238 13.4404 34.8799 13.4404c56.3203 0 61.4404 -50.3047 61.4404 -64.6406
c0 -44.0312 -34.8799 -62.3994 -65.6006 -62.3994c-48.1279 0 -61.5039 37.6963 -60.4795 54.0801h22.3994c0 -5.12012 5.18457 -33.6006 40 -33.6006c37.8887 0 40 36.9287 40 45.1201c0 33.792 -26.4961 42.8799 -42.8799 42.8799
c-19.4561 0 -30.7842 -12.1602 -34.8799 -17.2793l-19.5195 0.959961z" />
    <glyph glyph-name="calendar-28" unicode="&#xf11e;" 
d="M112.64 448h20.4805c5.34766 0 10.8594 -1.89941 14.7197 -5.75977c3.86133 -3.86133 5.75977 -9.37305 5.75977 -14.7207v-20.4795h204.801v20.4795c0 5.34766 1.89844 10.8594 5.75977 14.7207c3.86035 3.86035 9.37207 5.75977 14.7197 5.75977h20.4805
c5.34766 0 10.8584 -1.89941 14.7197 -5.75977c3.86035 -3.86133 5.75977 -9.37305 5.75977 -14.7207v-20.4795h71.6797c5.34766 0 10.8594 -1.89941 14.7207 -5.75977c3.86035 -3.86133 5.75977 -9.37305 5.75977 -14.7207v-430.079
c0 -5.34766 -1.89941 -10.8594 -5.75977 -14.7207c-3.86133 -3.86035 -9.37305 -5.75977 -14.7207 -5.75977h-471.039c-5.34766 0 -10.8594 1.89941 -14.7207 5.75977c-3.86035 3.86133 -5.75977 9.37305 -5.75977 14.7207v430.079
c0 5.34766 1.89941 10.8594 5.75977 14.7207c3.86133 3.86035 9.37305 5.75977 14.7207 5.75977h71.6797v20.4795c0 5.34766 1.89941 10.8594 5.75977 14.7207c3.86133 3.86035 9.37207 5.75977 14.7197 5.75977zM112.64 427.52v-61.4395h20.4805v61.4395h-20.4805z
M378.88 427.52v-61.4395h20.4805v61.4395h-20.4805zM20.4805 386.56v-81.9199h471.039v81.9199h-71.6797v-20.4795c0 -5.34766 -1.89941 -10.8594 -5.75977 -14.7197c-3.86133 -3.86133 -9.37207 -5.76074 -14.7197 -5.76074h-20.4805
c-5.34766 0 -10.8594 1.89941 -14.7197 5.76074c-3.86133 3.86035 -5.75977 9.37207 -5.75977 14.7197v20.4795h-204.801v-20.4795c0 -5.34766 -1.89844 -10.8594 -5.75977 -14.7197c-3.86035 -3.86133 -9.37207 -5.76074 -14.7197 -5.76074h-20.4805
c-5.34766 0 -10.8584 1.89941 -14.7197 5.76074c-3.86035 3.86035 -5.75977 9.37207 -5.75977 14.7197v20.4795h-71.6797zM20.4805 284.16v-327.68h471.039v327.68h-471.039zM180.16 219.52c55.2959 0 59.5195 -44.8633 59.5195 -54.0791
c0 -65.5361 -88 -67.7764 -98.2393 -114.881h97.2793v-20.4795h-122.88c2.04785 84.9922 99.0723 73.9199 101.12 135.36c0 5.11914 -4.03223 33.5996 -36.7998 33.5996c-34.8164 0 -36.7998 -40.8965 -36.7998 -47.04h-22.4004
c-1.02441 10.2402 -0.192383 67.5195 59.2002 67.5195zM328.64 219.52c55.2959 0 57.2803 -41.8555 57.2803 -48c0 -23.5518 -18.4316 -35.9678 -25.5996 -39.0391c11.2637 -3.07227 33.9199 -13.248 33.9199 -47.04c0 -46.0801 -38.8486 -57.2803 -62.4004 -57.2803
c-12.2881 0 -64.6396 3.00781 -64.6396 57.2803c0 31.7432 22.7197 42.9434 32.96 47.04c-8.19238 3.07129 -26.8799 15.4873 -26.8799 39.0391c0 20.4805 15.4238 48 55.3594 48zM324.16 199.04c-25.5381 -2.60645 -27.2002 -23.6797 -27.2002 -28.4805
c0 -20.4795 14.4639 -30.7197 33.9199 -30.7197c14.3359 0 30.7197 8.19238 30.7197 30.7197c0 10.2402 -5.37598 28.4805 -32 28.4805c-1.91992 0 -3.7373 0.173828 -5.43945 0zM330.88 120.32c-30.7197 0 -40 -21.5039 -40 -35.8398
c0 -26.624 20.5439 -36.8008 40 -36.8008c27.6484 0 38.7197 21.4404 38.7197 36.8008c0 12.2871 -11.0713 35.8398 -38.7197 35.8398z" />
    <glyph glyph-name="calendar-29" unicode="&#xf11f;" 
d="M112.64 448h20.4805c5.34766 0 10.8594 -1.89941 14.7197 -5.75977c3.86133 -3.86133 5.75977 -9.37305 5.75977 -14.7207v-20.4795h204.801v20.4795c0 5.34766 1.89844 10.8594 5.75977 14.7207c3.86035 3.86035 9.37207 5.75977 14.7197 5.75977h20.4805
c5.34766 0 10.8584 -1.89941 14.7197 -5.75977c3.86035 -3.86133 5.75977 -9.37305 5.75977 -14.7207v-20.4795h71.6797c5.34766 0 10.8594 -1.89941 14.7207 -5.75977c3.86035 -3.86133 5.75977 -9.37305 5.75977 -14.7207v-430.079
c0 -5.34766 -1.89941 -10.8594 -5.75977 -14.7207c-3.86133 -3.86035 -9.37305 -5.75977 -14.7207 -5.75977h-471.039c-5.34766 0 -10.8594 1.89941 -14.7207 5.75977c-3.86035 3.86133 -5.75977 9.37305 -5.75977 14.7207v430.079
c0 5.34766 1.89941 10.8594 5.75977 14.7207c3.86133 3.86035 9.37305 5.75977 14.7207 5.75977h71.6797v20.4795c0 5.34766 1.89941 10.8594 5.75977 14.7207c3.86133 3.86035 9.37207 5.75977 14.7197 5.75977zM112.64 427.52v-61.4395h20.4805v61.4395h-20.4805z
M378.88 427.52v-61.4395h20.4805v61.4395h-20.4805zM20.4805 386.56v-81.9199h471.039v81.9199h-71.6797v-20.4795c0 -5.34766 -1.89941 -10.8594 -5.75977 -14.7197c-3.86133 -3.86133 -9.37207 -5.76074 -14.7197 -5.76074h-20.4805
c-5.34766 0 -10.8594 1.89941 -14.7197 5.76074c-3.86133 3.86035 -5.75977 9.37207 -5.75977 14.7197v20.4795h-204.801v-20.4795c0 -5.34766 -1.89844 -10.8594 -5.75977 -14.7197c-3.86035 -3.86133 -9.37207 -5.76074 -14.7197 -5.76074h-20.4805
c-5.34766 0 -10.8584 1.89941 -14.7197 5.76074c-3.86035 3.86035 -5.75977 9.37207 -5.75977 14.7197v20.4795h-71.6797zM20.4805 284.16v-327.68h471.039v327.68h-471.039zM327.68 220.8c65.5361 0 64.6406 -70.7842 64.6406 -90.2402
c0 -86.0156 -34.8799 -101.439 -65.6006 -101.439c-41.9834 0 -55.2314 24.7676 -57.2793 48.3203h22.3994c1.02441 -10.2402 7.23242 -29.7607 34.8799 -29.7607c37.8887 0 41.8564 48.0645 42.8799 72.6406l-0.959961 0.959961
c-4.0957 -8.19238 -17.5361 -25.6006 -44.1592 -25.6006c-58.3682 0 -59.2002 54.4639 -59.2002 63.6807c0 17.4072 9.15137 61.4395 62.3994 61.4395zM180.16 218.56c55.2959 0 59.5195 -44.8633 59.5195 -54.0791c0 -65.5361 -88 -67.7764 -98.2393 -114.881h97.2793
v-20.4795h-122.88c2.04785 84.9922 99.0723 73.9199 101.12 135.36c0 5.11914 -4.03223 33.5996 -36.7998 33.5996c-34.8164 0 -36.7998 -40.8965 -36.7998 -47.04h-22.4004c-2.04785 11.2637 -0.192383 67.5195 59.2002 67.5195zM325.76 199.04
c-36.8633 0 -37.1201 -38.6562 -37.1201 -44.7998c0 -14.3359 10.4961 -40 37.1201 -40c23.5518 0 38.7207 19.3916 38.7207 41.9199c0 31.7441 -22.3369 42.8799 -38.7207 42.8799z" />
    <glyph glyph-name="guest-male" unicode="&#xf147;" 
d="M264.96 414.08h0.320312c22.5801 0 42.2812 -5.68262 53.1201 -20.1602c16.0752 -3.46973 28.8975 -11.0488 36.7998 -22.0801c8.75293 -12.2197 12.6445 -26.8857 13.7598 -41.5996c2.03223 -26.7988 -4.27148 -53.0244 -9.59961 -69.4404
c4.84863 -5.93555 7.94141 -13.8154 7.04004 -24.6396c-1.14258 -12.5596 -4.0293 -21.7129 -8.95996 -28.1602c-2.5498 -3.33301 -6.3125 -3.44922 -9.60059 -5.12012c-1.60352 -10.6953 -4.28613 -21.4775 -8.32031 -30.3994
c-2.31445 -5.12109 -5.0459 -9.57617 -7.67969 -13.4404c-1.16016 -1.70215 -2.90625 -2.70801 -4.16016 -4.16016v-37.1201c3.4873 -7.96387 11.2412 -14.2393 23.6807 -20.4795c12.957 -6.50098 29.7637 -12.4512 46.7197 -19.8398
c16.9561 -7.38965 34.2637 -16.5713 48 -30.7207s23.5596 -33.3857 24.96 -58.8799l0.639648 -10.8799h-10.8799h-389.12h-10.8799l0.640625 10.8799c1.40039 25.4941 11.2422 44.7324 24.96 58.8799c13.7168 14.1484 30.791 23.3311 47.6797 30.7207
c16.8887 7.38867 33.6045 13.3525 46.4004 19.8398c12.2754 6.22363 20.0684 12.5879 23.3594 20.4795v36.7998c-1.34766 1.52344 -3.25098 2.67676 -4.47949 4.48047c-2.63477 3.86426 -5.0459 8.31934 -7.36035 13.4404
c-4.07324 9.00977 -6.73828 19.916 -8.32031 30.7197c-2.89844 1.69238 -6.30273 1.74414 -8.63965 4.7998c-4.77637 6.24609 -8.53613 15.0215 -10.2402 27.5195v0.320312v0.320312c-0.984375 11.8174 2.91406 19.6797 7.68066 25.2803
c-8.87695 37.4453 -11.4834 73.4619 0.959961 102.079c13.0654 30.0508 43.4688 49.4805 91.5195 50.5605zM265.28 393.6c-42.8398 -1.04102 -63.0137 -15.5215 -72.96 -38.3994c-9.97461 -22.9414 -8.49023 -56.7773 0.959961 -94.0801l1.59961 -7.04004l-5.75977 -4.16016
c0.819336 0.545898 -4.00391 -3.75586 -3.83984 -11.5195c0.0224609 -0.163086 -0.0224609 -0.160156 0 -0.320312c0.00976562 -0.200195 -0.0175781 -0.115234 0 -0.320312c1.40332 -9.41992 3.94141 -14.9014 5.75977 -17.2793
c0.939453 -1.22949 1.88281 -1.74805 2.24023 -1.9209h8.63965l0.639648 -9.2793c0.875977 -9.19434 4.18262 -19.7139 8 -28.1602c1.90918 -4.22363 4.01074 -7.99316 5.76074 -10.5605s3.82324 -4.05859 2.87988 -3.51953l5.12012 -2.87988v-6.08008v-38.4004
c0.530273 -1.13672 0.960938 -3.07715 0.960938 -4.33105c0 -0.0410156 -0.000976562 -0.107422 -0.000976562 -0.148438c0 -0.879883 1.89062 -4.84277 9.2793 -8.64062c7.38965 -3.79688 18.8076 -6.71973 31.6807 -6.71973c12.751 0 24.2197 3.10352 31.6797 7.04004
c7.45996 3.9375 9.28027 8.43359 9.28027 8.32031v0.639648c-0.00683594 0.132812 -0.0117188 0.347656 -0.0117188 0.480469c0 0.131836 0.00488281 0.347656 0.0117188 0.479492v41.2803v6.08008l5.12012 2.87988c-0.944336 -0.539062 1.12988 0.952148 2.87988 3.51953
s3.53027 6.33691 5.43945 10.5605c3.81836 8.44629 7.125 18.9658 8 28.1602l0.959961 9.2793h9.28027c-0.34082 0 0.514648 -0.335938 2.24023 1.9209c1.69629 2.21777 4.17773 7.63281 5.12012 17.2793c0.0166016 0.165039 -0.015625 0.15332 0 0.320312
c0.408203 7.51562 -2.95898 10.9092 -2.87988 11.2002l-8 4.16016l3.19922 8.63965c4.68164 13.1064 11.7852 41.9717 9.9209 66.5596c-0.932617 12.2939 -4.20996 23.3877 -9.9209 31.3604c-5.70996 7.97266 -13.458 13.3828 -27.5195 15.3604l-5.12012 0.639648
l-2.55957 4.48047c-4.25488 7.29297 -17.3125 13.0459 -37.7607 13.1191c-0.126953 0.000976562 -0.191406 0 -0.319336 0zM214.08 96c-6.60156 -7.19141 -15.2588 -12.6865 -24.3203 -17.2803c-14.7246 -7.46484 -31.4805 -13.2129 -47.3594 -20.1602
c-15.8799 -6.94629 -30.5498 -14.8516 -41.2803 -25.9199c-8.55469 -8.82324 -13.8477 -20.5869 -16.6396 -35.1992h363.52c-2.79199 14.6113 -8.0752 26.377 -16.6396 35.1992c-10.7441 11.0674 -25.3408 18.9736 -41.2803 25.9199
c-15.9395 6.94727 -32.8291 12.709 -47.6797 20.1602c-9.00781 4.51953 -17.6182 9.91406 -24.3203 16.96c-3.08691 -2.72266 -6.7168 -5.01172 -10.5605 -7.04004c-10.9717 -5.79102 -25.3584 -9.2793 -41.2793 -9.2793c-15.7988 0 -29.917 3.28516 -40.96 8.95996
c-4.1416 2.12793 -7.92383 4.65039 -11.2002 7.67969z" />
    <glyph glyph-name="gender-neutral-user" unicode="&#xf145;" 
d="M256 417.28c56.6611 0 102.4 -45.7393 102.4 -102.4v-61.4395c0 -33.1631 -16.2549 -62.9326 -40.96 -81.6006v-46.3994c0 -1.29004 0.233398 -2.30273 2.87988 -4.80078c2.64648 -2.49707 7.47559 -5.5127 13.7598 -8.63965
c12.5693 -6.25488 30.7871 -12.9102 49.2803 -21.7598c18.4922 -8.85059 37.6299 -20.0391 52.4795 -36.4805c14.8496 -16.4404 24.96 -38.5703 24.96 -66.5596v-10.2402h-10.2402h-389.119h-10.2402v10.2402c0 27.7568 10.1279 49.7832 24.96 66.2402
c14.832 16.4561 33.9922 27.8193 52.4795 36.7998c18.4883 8.97949 36.6777 15.458 49.2803 21.7598c6.30176 3.15039 11.0977 6.47754 13.7598 8.95996s2.87988 3.41309 2.87988 4.48047v46.3994c-24.7051 18.668 -40.96 48.4375 -40.96 81.6006v61.4395
c0 56.6611 45.7393 102.4 102.4 102.4zM256 396.8c-45.7383 0 -81.9199 -36.1807 -81.9199 -81.9199v-61.4395c0 -28.2207 14.7441 -53.6699 36.4795 -68.1602l4.48047 -3.2002v-5.44043v-51.1992c0 -7.89355 -4.10254 -14.6914 -9.28027 -19.5205
s-11.7412 -8.59082 -18.8799 -12.1602c-14.2773 -7.13867 -31.9277 -13.6514 -49.2803 -22.0801c-17.3516 -8.42773 -34.0312 -18.6318 -46.0801 -32c-9.97363 -11.0654 -15.8027 -25.0869 -17.9199 -42.2393h364.801c-2.10352 17.377 -7.94043 31.5098 -17.9199 42.5596
c-12.0303 13.3193 -28.7334 23.3779 -46.0801 31.6797c-17.3477 8.30273 -34.9697 14.6387 -49.2803 21.7607c-7.15527 3.56055 -13.6865 7.25781 -18.8799 12.1592c-5.19434 4.90234 -9.28027 11.9141 -9.28027 19.8408v51.1992v5.44043l4.48047 3.2002
c21.7354 14.4902 36.4795 39.9395 36.4795 68.1602v61.4395c0 45.7393 -36.1816 81.9199 -81.9199 81.9199z" />
    <glyph glyph-name="calendar-17" unicode="&#xf112;" 
d="M112.64 448h20.4805c5.34766 0 10.8594 -1.89941 14.7197 -5.75977c3.86133 -3.86133 5.75977 -9.37305 5.75977 -14.7207v-20.4795h204.801v20.4795c0 5.34766 1.89844 10.8594 5.75977 14.7207c3.86035 3.86035 9.37207 5.75977 14.7197 5.75977h20.4805
c5.34766 0 10.8584 -1.89941 14.7197 -5.75977c3.86035 -3.86133 5.75977 -9.37305 5.75977 -14.7207v-20.4795h71.6797c5.34766 0 10.8594 -1.89941 14.7207 -5.75977c3.86035 -3.86133 5.75977 -9.37305 5.75977 -14.7207v-430.079
c0 -5.34766 -1.89941 -10.8594 -5.75977 -14.7207c-3.86133 -3.86035 -9.37305 -5.75977 -14.7207 -5.75977h-471.039c-5.34766 0 -10.8594 1.89941 -14.7207 5.75977c-3.86035 3.86133 -5.75977 9.37305 -5.75977 14.7207v430.079
c0 5.34766 1.89941 10.8594 5.75977 14.7207c3.86133 3.86035 9.37305 5.75977 14.7207 5.75977h71.6797v20.4795c0 5.34766 1.89941 10.8594 5.75977 14.7207c3.86133 3.86035 9.37207 5.75977 14.7197 5.75977zM112.64 427.52v-61.4395h20.4805v61.4395h-20.4805z
M378.88 427.52v-61.4395h20.4805v61.4395h-20.4805zM20.4805 386.56v-81.9199h471.039v81.9199h-71.6797v-20.4795c0 -5.34766 -1.89941 -10.8594 -5.75977 -14.7197c-3.86133 -3.86133 -9.37207 -5.76074 -14.7197 -5.76074h-20.4805
c-5.34766 0 -10.8594 1.89941 -14.7197 5.76074c-3.86133 3.86035 -5.75977 9.37207 -5.75977 14.7197v20.4795h-204.801v-20.4795c0 -5.34766 -1.89844 -10.8594 -5.75977 -14.7197c-3.86035 -3.86133 -9.37207 -5.76074 -14.7197 -5.76074h-20.4805
c-5.34766 0 -10.8584 1.89941 -14.7197 5.76074c-3.86035 3.86035 -5.75977 9.37207 -5.75977 14.7197v20.4795h-71.6797zM20.4805 284.16v-327.68h471.039v327.68h-471.039zM185.28 219.52h17.5996v-188.159h-22.7197v134.08h-48.96v18.2393
c49.1514 0 53.0557 28.6719 54.0801 35.8398zM269.44 215.68h121.6v-19.5195c-9.21582 -9.21582 -61.4404 -63.6797 -71.6797 -166.08h-25.6006c6.14453 92.1602 64.6406 153.6 74.8799 163.84h-99.1992v21.7598z" />
    <glyph glyph-name="ok-filled" unicode="&#xf155;" 
d="M256 417.28c124.222 0 225.28 -101.059 225.28 -225.28s-101.059 -225.28 -225.28 -225.28s-225.28 101.059 -225.28 225.28s101.059 225.28 225.28 225.28zM240.671 94.4131l125.327 194.447l-17.2236 11.0898l-112.261 -174.203l-75.0293 67.707l-13.7207 -15.1963z
" />
    <glyph glyph-name="down-2" unicode="&#xf138;" 
d="M255.04 366.4c0.265625 0.0244141 0.698242 0.0449219 0.96582 0.0449219c5.65234 0 10.2402 -4.58789 10.2402 -10.2412c0 -0.100586 -0.00292969 -0.263672 -0.00585938 -0.364258v-302.399l94.0801 94.0791c1.69629 2.10645 5.26953 3.81543 7.97363 3.81543
c5.65332 0 10.2412 -4.58789 10.2412 -10.2412c0 -2.7041 -1.70898 -6.27637 -3.81543 -7.97363l-111.359 -111.68l-7.36035 -7.04004l-7.36035 7.04004l-111.359 111.68c-1.72168 1.66602 -3.11914 4.96289 -3.11914 7.35938c0 5.6084 4.55078 10.1953 10.1592 10.2402
c2.40723 -0.0175781 5.7041 -1.45117 7.35938 -3.2002l94.0801 -94.0791v302.399c-0.000976562 0.0683594 -0.00292969 0.178711 -0.00292969 0.24707c0 4.52637 3.58594 9.00391 8.00293 9.99316c0.347656 0.111328 0.920898 0.254883 1.28027 0.320312z" />
    <glyph glyph-name="plus-math" unicode="&#xf15a;" 
d="M235.52 355.84h40.9609v-143.359h143.359v-40.9609h-143.359v-143.359h-40.9609v143.359h-143.359v40.9609h143.359v143.359z" />
    <glyph glyph-name="amazon" unicode="&#xf101;" 
d="M258.986 405.333c28.6299 0 66.2188 -7.4873 88.832 -28.9492c28.6514 -26.4961 26.0693 -62.1016 26.0693 -100.587v-90.5811c0 -27.3281 11.0293 -39.5303 21.8027 -54.25c3.75488 -5.3125 4.7793 -11.3926 0 -15.2754
c-12.0107 -10.0049 -33.4502 -28.6074 -45.2051 -38.9756v0.533203c-3.88281 -3.45605 -9.42969 -3.9043 -13.8242 -1.5791c-19.5625 16.1074 -23.3594 23.6592 -34.0479 38.9766c-32.3203 -32.5977 -54.9336 -42.6455 -96.8105 -42.6455
c-49.5791 0 -88.2988 30.5283 -88.2988 91.0938c0 47.3379 25.8564 79.5303 62.7627 95.3174c31.9365 13.8877 76.4805 16.2129 110.635 20.0098v7.89355c0 13.8887 1.36523 30.1445 -6.91211 42.1338c-7.16797 10.7305 -20.8643 15.2744 -32.9814 15.2744
c-22.4424 0 -42.4316 -11.6689 -47.3389 -35.2852c-1.02344 -5.26953 -5.29004 -10.2617 -10.6445 -10.5391l-56.918 5.80273c-4.82129 1.06641 -9.91992 4.82129 -8.51172 12.1172c13.0986 68.5439 75.3496 89.5146 131.392 89.5146zM274.944 231.552
c-37.1631 -2.41016 -71.2959 -15.0186 -71.2959 -58.4316c0 -25.2373 13.0557 -42.1338 35.6475 -42.1338c16.5332 0 31.5947 9.91992 40.96 26.3252c11.5625 20.2031 10.6455 38.8916 10.6455 61.6113v12.6289c-5.33301 0 -10.6455 0.341797 -15.957 0zM437.696 95.6797
c14.9326 0.213867 27.2637 -2.6875 29.8027 -5.75977c5.12012 -6.29297 -1.5791 -49.3008 -26.6025 -70.0371c-3.84082 -3.2002 -7.55273 -1.5791 -5.8457 2.62402c5.61035 13.9307 18.1973 45.0771 12.2236 52.6504c-5.97266 7.57324 -39.21 3.37109 -54.25 1.5791
c-4.56543 -0.533203 -5.16309 3.45605 -1.06738 6.31445c13.3545 9.28027 30.8271 12.416 45.7393 12.6289zM45.6748 87.7871c1.02344 0.12793 2.41016 -0.298828 3.7334 -1.0459c60.0107 -34.5811 133.973 -55.2959 210.646 -55.2959
c51.7119 0 108.863 10.667 161.173 32.6396c7.89355 3.32812 14.6133 -5.39648 6.91211 -11.0508c-46.6562 -34.0898 -114.646 -52.1377 -172.886 -52.1377c-81.6426 0 -155.008 29.7812 -210.645 79.5088c-3.28613 2.94434 -2.04883 6.97559 1.06641 7.38184z" />
    <glyph glyph-name="security-checked" unicode="&#xf15f;" 
d="M256 448c25.1094 0 46.3027 -13.8975 77.7598 -30.0801s73.6387 -35.7754 139.521 -50.2402l8 -1.91992v-8c0 -303.686 -220.48 -417.6 -220.48 -417.6l-4.47949 -2.24023l-4.48047 2.24023s-55.9541 25.873 -111.04 90.8799
c-55.085 65.0068 -110.08 169.839 -110.08 326.72v8l8 1.91992c65.8818 14.4648 108.063 34.0576 139.521 50.2402s52.6504 30.0801 77.7598 30.0801zM256 427.52c-16.8545 0 -36.3486 -11.3105 -68.4805 -27.8398c-30.5078 -15.6943 -73.4492 -34.9326 -135.68 -49.5996
c1.87891 -147.445 52.8477 -245.176 104.32 -305.92c48.8525 -57.6523 93.1768 -79.7998 99.5195 -82.8799c13.165 6.94336 200.737 111.102 204.48 388.8c-62.2305 14.667 -105.172 33.9053 -135.68 49.5996c-32.1318 16.5293 -51.626 27.8398 -68.4805 27.8398z
M334.72 298.24l17.2803 -10.8799l-5.44043 -8.64062l-89.9199 -139.52l-6.71973 -10.2402l-8.95996 8l-63.3604 57.5996l-7.67969 7.04004l13.7598 15.04l7.36035 -6.71973l55.04 -49.5996l83.2002 129.279z" />
    <glyph glyph-name="toggle-on-filled" unicode="&#xf171;" 
d="M368.64 335.36c79.0527 0 143.36 -64.3076 143.36 -143.36s-64.3076 -143.36 -143.36 -143.36h-225.279c-79.0527 0 -143.36 64.3076 -143.36 143.36s64.3076 143.36 143.36 143.36h225.279zM368.64 69.1201c67.7588 0 122.88 55.1221 122.88 122.88
s-55.1211 122.88 -122.88 122.88c-67.7578 0 -122.88 -55.1221 -122.88 -122.88s55.1221 -122.88 122.88 -122.88z" />
    <glyph glyph-name="insert-table" unicode="&#xf14a;" 
d="M255.04 448.32c0.0888672 0.00292969 0.232422 0.00488281 0.320312 0.00488281c0.717773 0 1.86426 -0.145508 2.55957 -0.325195h243.84c5.65234 -0.000976562 10.2393 -4.58789 10.2402 -10.2402v-161.6c0.118164 -0.568359 0.213867 -1.5 0.213867 -2.08008
s-0.0957031 -1.51172 -0.213867 -2.08008v-159.68c0.118164 -0.568359 0.213867 -1.5 0.213867 -2.08008s-0.0957031 -1.51172 -0.213867 -2.08008v-161.92c-0.000976562 -5.65234 -4.58789 -10.2393 -10.2402 -10.2402h-491.52
c-5.65234 0.000976562 -10.2393 4.58789 -10.2402 10.2402v160.96c-0.254883 0.819336 -0.460938 2.18164 -0.460938 3.04004s0.206055 2.21973 0.460938 3.04004v157.76c-0.254883 0.819336 -0.460938 2.18164 -0.460938 3.04004s0.206055 2.21973 0.460938 3.04004v160.64
v0.0439453c0 5.14551 4.15723 9.71387 9.28027 10.1963c0.131836 0.00585938 0.347656 0.0117188 0.479492 0.0117188c0.132812 0 0.347656 -0.00585938 0.480469 -0.0117188h243.52c0.347656 0.111328 0.920898 0.254883 1.28027 0.320312zM20.4805 427.52v-143.359
h225.279v143.359h-225.279zM266.24 427.52v-143.359h225.279v143.359h-225.279zM20.4805 263.68v-143.359h225.279v143.359h-225.279zM266.24 263.68v-143.359h225.279v143.359h-225.279zM20.4805 99.8398v-143.359h225.279v143.359h-225.279zM266.24 99.8398v-143.359
h225.279v143.359h-225.279z" />
    <glyph glyph-name="up-2" unicode="&#xf178;" 
d="M256 369.6l7.36035 -7.04004l111.359 -111.68c2.10645 -1.69727 3.81543 -5.26953 3.81543 -7.97363c0 -5.65332 -4.58789 -10.2412 -10.2412 -10.2412c-2.7041 0 -6.27734 1.70898 -7.97363 3.81543l-94.0801 94.0791v-302.399
c0 -0.0400391 0.000976562 -0.105469 0.000976562 -0.144531c0 -5.65332 -4.58789 -10.2412 -10.2412 -10.2412s-10.2412 4.58789 -10.2412 10.2412c0 0.0390625 0.000976562 0.104492 0.000976562 0.144531v302.399l-94.0801 -94.0791
c-1.69629 -2.10645 -5.26953 -3.81543 -7.97363 -3.81543c-5.65332 0 -10.2412 4.58789 -10.2412 10.2412c0 2.7041 1.70898 6.27637 3.81543 7.97363l111.359 111.68z" />
    <glyph glyph-name="trash" unicode="&#xf172;" 
d="M215.04 448h81.9199c16.8457 0 30.7197 -13.875 30.7197 -30.7197v-20.4805h102.4c0.0400391 0.000976562 0.104492 0.000976562 0.144531 0.000976562c5.65332 0 10.2412 -4.58789 10.2412 -10.2412c0 -5.65234 -4.58789 -10.2402 -10.2412 -10.2402
c-0.0400391 0 -0.104492 0 -0.144531 0.000976562h-11.2002l-36.7998 -414.721c-1.28027 -14.3281 -13.4658 -25.5996 -27.8398 -25.5996h-196.48c-14.3711 0 -26.5586 11.2637 -27.8398 25.5996l-36.7998 414.721h-11.2002
c-0.132812 -0.00683594 -0.347656 -0.0117188 -0.479492 -0.0117188c-5.65918 0 -10.252 4.59277 -10.252 10.251c0 5.40039 4.37793 9.9873 9.77148 10.2402c0.132812 0.00683594 0.347656 0.0117188 0.480469 0.0117188
c0.131836 0 0.34668 -0.00488281 0.479492 -0.0117188h18.5605c0.524414 0.100586 1.38477 0.181641 1.91992 0.181641c0.53418 0 1.39453 -0.0810547 1.91992 -0.181641h80v20.4805c0 16.8447 13.874 30.7197 30.7197 30.7197zM215.04 427.52
c-5.76465 0 -10.2402 -4.47461 -10.2402 -10.2393v-20.4805h102.4v20.4805c0 5.76465 -4.47559 10.2393 -10.2402 10.2393h-81.9199zM113.6 376.32l36.8008 -413.12c0.316406 -3.54297 4.11816 -6.71973 7.35938 -6.71973h196.48c3.25879 0 7.04297 3.16895 7.35938 6.71973
l36.8008 413.12h-284.801zM193.6 345.92c0.266602 0.0253906 0.699219 0.0458984 0.96582 0.0458984c5.65332 0 10.2412 -4.58789 10.2412 -10.2412c0 -0.100586 -0.00292969 -0.263672 -0.00683594 -0.364258v-337.92
c0.000976562 -0.0400391 0.000976562 -0.105469 0.000976562 -0.145508c0 -5.65234 -4.58789 -10.2412 -10.2412 -10.2412c-5.65234 0 -10.2402 4.58887 -10.2402 10.2412c0 0.0400391 0 0.105469 0.000976562 0.145508v337.92
c-0.00195312 0.0673828 -0.00292969 0.177734 -0.00292969 0.246094c0 4.52734 3.58496 9.00391 8.00293 9.99316c0.347656 0.111328 0.920898 0.254883 1.2793 0.320312zM255.04 345.92c0.265625 0.0253906 0.698242 0.0458984 0.96582 0.0458984
c5.65234 0 10.2402 -4.58789 10.2402 -10.2412c0 -0.100586 -0.00292969 -0.263672 -0.00585938 -0.364258v-337.92c0 -0.0400391 0.000976562 -0.105469 0.000976562 -0.145508c0 -5.65234 -4.58789 -10.2412 -10.2412 -10.2412s-10.2412 4.58887 -10.2412 10.2412
c0 0.0400391 0.000976562 0.105469 0.000976562 0.145508v337.92c-0.000976562 0.0673828 -0.00292969 0.177734 -0.00292969 0.246094c0 4.52734 3.58594 9.00391 8.00293 9.99316c0.347656 0.111328 0.920898 0.254883 1.28027 0.320312zM316.48 345.92
c0.265625 0.0253906 0.698242 0.0458984 0.964844 0.0458984c5.65332 0 10.2412 -4.58789 10.2412 -10.2412c0 -0.100586 -0.00292969 -0.263672 -0.00683594 -0.364258v-337.92c0.000976562 -0.0400391 0.000976562 -0.105469 0.000976562 -0.145508
c0 -5.65234 -4.58789 -10.2412 -10.2402 -10.2412c-5.65332 0 -10.2412 4.58887 -10.2412 10.2412c0 0.0400391 0 0.105469 0.000976562 0.145508v337.92c-0.00195312 0.0673828 -0.00292969 0.177734 -0.00292969 0.246094c0 4.52734 3.58496 9.00391 8.00293 9.99316
c0.347656 0.111328 0.920898 0.254883 1.28027 0.320312z" />
    <glyph glyph-name="businesswoman" unicode="&#xf108;" 
d="M266.24 407.04h0.0712891c3.53613 0 7.66113 -2.58008 9.20801 -5.75977l7.68066 -15.3604c34.8311 -1.53906 59.9756 -13.915 75.8398 -33.2803c16.9219 -20.6562 23.8818 -47.3105 27.2002 -73.9199c3.31738 -26.6084 2.93066 -53.6123 3.83984 -75.2002
c0.454102 -10.793 1.41016 -20.1758 2.87988 -27.1992c1.46973 -7.02441 3.65137 -11.1494 5.12012 -12.4805c1.76758 -1.67285 3.20312 -5.00488 3.20312 -7.43945c0 -0.0664062 -0.00195312 -0.173828 -0.00292969 -0.240234
c0 -8.90332 -5.97461 -13.8652 -11.8398 -17.6006c-5.86621 -3.73438 -13.2471 -6.875 -21.7607 -9.59961c-14.2744 -4.56738 -32.7949 -7.2959 -51.5195 -9.59961c0.00878906 -0.366211 -0.00390625 -0.942383 0 -1.28027
c3.38086 -8.11426 11.585 -14.4551 24.3203 -20.7998c13.0527 -6.50488 29.958 -12.4531 47.0391 -19.8398c17.082 -7.38672 34.4814 -16.2559 48.3203 -30.4004s23.5586 -33.6875 24.96 -59.2002c0.0107422 -0.175781 0.0205078 -0.461914 0.0205078 -0.638672
c0 -5.65332 -4.58789 -10.2412 -10.2412 -10.2412h-0.0195312h-389.119h-0.0195312c-5.65332 0 -10.2412 4.58789 -10.2412 10.2412c0 0.176758 0.00976562 0.462891 0.0205078 0.638672c1.40234 25.5312 11.3525 45.0752 25.2803 59.2002
c13.9268 14.125 31.4873 23.0771 48.6396 30.4004c15.1934 6.48633 29.9766 11.4609 42.2402 16.96c1.08008 0.929688 3.08691 1.93359 4.47949 2.23926c0.260742 0.101562 0.69043 0.245117 0.959961 0.320312c0.0898438 0.0449219 0.231445 -0.0449219 0.320312 0
c12.2305 6.13086 19.7305 12.8623 22.7197 20.4805c0.0908203 0.732422 0.257812 0.993164 0.320312 1.59961c-17.9473 2.24902 -36.1846 4.51855 -50.2402 8.32031c-8.37109 2.26367 -15.3564 4.64844 -21.4395 8.63965
c-6.08398 3.99121 -11.8408 10.8369 -11.8408 19.2002c0.0117188 2.55957 1.58887 6 3.52051 7.67969c1.9209 1.70215 4.65137 6.55273 6.71973 14.4004c2.06836 7.84668 3.50098 18.1982 4.7998 30.0801c2.59863 23.7627 4.35742 53.4082 10.2402 82.5596
c5.88379 29.1514 15.8477 58.0693 35.8398 80.3203s50.3018 36.7998 92.4805 36.7998zM260.48 385.6c-33.7256 -1.34277 -56.0977 -11.8125 -71.3604 -28.7998c-16.2637 -18.1006 -25.5312 -43.7432 -31.04 -71.04c-5.50879 -27.2959 -7.23828 -56.1152 -9.91992 -80.6396
c-1.34082 -12.2627 -2.88086 -23.251 -5.44043 -32.96c-1.79785 -6.82227 -5.67773 -11.9863 -9.2793 -17.2803c-0.0527344 0.0361328 -0.289062 0.0595703 2.23926 -1.59961c2.94141 -1.92969 8.43457 -4.44043 15.6807 -6.40039
c14.4902 -3.91992 35.2344 -6.73145 56.6396 -9.28027c4.94629 -0.623047 8.95996 -5.1748 8.95996 -10.1602v-0.0791016c0 -3.07227 0.12207 -7.14648 -0.959961 -14.7207c-0.124023 -0.546875 -0.411133 -1.40723 -0.639648 -1.91992
c-1.49512 -4.04492 -3.6416 -7.59082 -6.08008 -10.8799l46.7197 -64.6396l47.6797 64.3193c-2.88965 3.66406 -5.28906 7.59082 -7.04004 12.1602c-0.348633 0.94043 -0.635742 2.51758 -0.639648 3.52051c0 3.07227 -0.141602 6.14941 -0.959961 10.2402
c-0.103516 0.532227 -0.1875 1.40527 -0.1875 1.94824c0 5.24023 4.24121 9.81543 9.46777 10.2109c21.374 1.98828 42.3066 6.08887 57.2793 10.8809c7.4873 2.39551 13.5781 5.20605 16.96 7.35938c1.05176 0.669922 1.32227 0.763672 1.60059 0.959961
c-2.94922 4.77344 -6.13184 9.48926 -7.36035 15.3604c-1.89844 9.07617 -2.72656 19.1611 -3.2002 30.3994c-0.946289 22.4775 -0.757812 48.8818 -3.83984 73.6006s-9.30566 47.376 -22.3994 63.3594c-13.0947 15.9844 -32.7637 26.5605 -66.8799 26.5605h-0.0712891
c-3.53613 0 -7.66211 2.58008 -9.20898 5.75977zM193.92 85.7598c-3.02637 -1.99805 -6.32031 -3.73145 -9.59961 -5.43945c0.15918 -8.25293 0.767578 -27.3867 0.959961 -36.1602c4.09961 -1.4209 9.4043 -3.5918 21.7598 -7.04004
c8.4834 -2.36719 17.8496 -4.69824 26.8799 -6.40039zM319.04 85.7598l-40.6396 -55.04c8.93555 1.69629 18.1768 4.06055 26.5596 6.40039c12.3555 3.44824 17.6602 5.61914 21.7598 7.04004c0.194336 8.85156 0.807617 28.4092 0.959961 36.4795
c-2.97656 1.5918 -5.86621 3.28027 -8.63965 5.12012zM347.84 71.3604c-0.282227 -15.0908 -0.639648 -35.2002 -0.639648 -35.2002c-0.00683594 -3.94336 -3.01758 -8.24414 -6.71973 -9.60059c0 0 -13.1855 -4.56445 -30.0801 -9.2793
c-15.9873 -4.46191 -35.1221 -8.79688 -51.5205 -9.28027c-0.102539 -0.00292969 -0.217773 0.00292969 -0.320312 0c-0.172852 -0.0947266 -0.459961 -0.238281 -0.639648 -0.320312c-0.176758 -0.0107422 -0.462891 -0.0195312 -0.639648 -0.0195312
s-0.463867 0.00878906 -0.640625 0.0195312c-0.201172 -0.000976562 -0.438477 0 -0.639648 0c-0.911133 0 -1.94922 0.292969 -2.87988 0.320312c-16.3984 0.482422 -35.5332 4.81836 -51.5205 9.28027c-16.8945 4.71484 -30.0801 9.2793 -30.0801 9.2793
c-3.70215 1.35645 -6.71289 5.65723 -6.71973 9.60059c0 0 -0.356445 19.8135 -0.639648 34.8799c-10.2119 -4.13477 -20.7588 -8.09082 -31.04 -12.4805c-16.1279 -6.88477 -31.3359 -14.8604 -42.2402 -25.9199c-8.69336 -8.81641 -13.8203 -20.6143 -16.6396 -35.1992
h363.52c-2.80566 14.5986 -8.00391 26.373 -16.6396 35.1992c-10.833 11.0723 -25.8496 18.9707 -41.9199 25.9199c-10.373 4.48633 -21.0205 8.53125 -31.3604 12.8008z" />
    <glyph glyph-name="phone-filled" unicode="&#xf158;" 
d="M420.321 -63.9902h-0.645508c-87.4395 2.7959 -190.167 87.8594 -261.007 158.721c-70.8506 70.8604 -155.894 173.608 -158.659 260.7c-0.941406 29.46 73.7998 84.1006 74.5576 84.6338c16.6611 11.6113 39.0557 9.41016 48.1689 -3.19531
c5.9707 -8.26367 63.0889 -94.8633 69.335 -104.725c6.1748 -9.71777 5.20215 -24.3408 -2.60059 -39.127c-4.51562 -8.60156 -19.8145 -35.4814 -26.4707 -47.1553c7.0459 -10.1992 26.7988 -36.5059 68.5469 -78.2539c41.9941 -41.9844 68.1064 -61.583 78.2441 -68.5879
c11.6836 6.66699 38.5742 21.9756 47.1963 26.5117c14.2949 7.54688 29.1729 8.64258 38.9424 2.68262c10.2607 -6.27734 96.6553 -63.7236 104.725 -69.3555c6.33789 -4.44434 10.4346 -12.1035 11.2227 -21.043c0.80957 -9.12402 -1.99707 -18.79 -7.90527 -27.2285
c-0.542969 -0.737305 -54.5078 -74.5781 -83.6504 -74.5781z" />
    <glyph glyph-name="appointment-reminders" unicode="&#xf102;" 
d="M256 448c22.5 0 40.96 -18.46 40.96 -40.96c0 -5.26953 -1.04004 -10.3994 -2.87988 -15.04c57.5166 -15.0381 95.04 -65.0459 95.04 -128.32c0 -80.2129 19.6875 -116.738 38.3994 -137.279c9.35645 -10.2715 18.5869 -16.5352 26.5605 -22.4004
c3.98633 -2.93262 7.62891 -5.84766 10.8799 -9.59961s6.08008 -9.12012 6.08008 -15.04c0 -14.0605 -8.64551 -26.0391 -20.7998 -33.9199c-12.1553 -7.88184 -28.1338 -12.9766 -47.3604 -16.96c-24.9473 -5.16992 -55.75 -7.87695 -89.5996 -9.28027
c2.60547 -6.76855 4.16016 -14.0908 4.16016 -21.7598c0 -33.8145 -27.626 -61.4404 -61.4404 -61.4404s-61.4404 27.626 -61.4404 61.4404c0 7.62793 1.61914 14.9717 4.16016 21.7598c-33.8496 1.40332 -64.6523 4.11035 -89.5996 9.28027
c-19.2266 3.9834 -35.2051 9.07812 -47.3604 16.96c-12.1543 7.88086 -20.7998 19.8594 -20.7998 33.9199c0 5.91992 2.8291 11.2881 6.08008 15.04s6.89355 6.66699 10.8799 9.59961c7.97363 5.86523 17.2041 12.1289 26.5605 22.4004
c18.7119 20.541 38.3994 57.0664 38.3994 137.279c0 63.332 37.4229 113.361 95.04 128.32c-1.83984 4.64062 -2.87988 9.77051 -2.87988 15.04c0 22.5 18.46 40.96 40.96 40.96zM256 427.52c-11.4316 0 -20.4805 -9.04785 -20.4805 -20.4795
s9.04883 -20.4805 20.4805 -20.4805s20.4805 9.04883 20.4805 20.4805s-9.04883 20.4795 -20.4805 20.4795zM280 374.4c-6.81445 -5.06055 -14.9238 -8.32031 -24 -8.32031c-9.00293 0 -17.2148 3.0127 -24 8c-54.541 -9.77637 -88.6396 -51.626 -88.6396 -110.4
c0 -83.626 -21.2725 -126.617 -43.5205 -151.04c-11.124 -12.2109 -22.373 -19.8467 -29.7598 -25.2793c-3.69336 -2.7168 -6.45117 -4.98145 -7.67969 -6.40039c-1.22949 -1.41797 -0.959961 -1.28418 -0.959961 -1.59961c0 -6.41992 2.94824 -11.082 11.5195 -16.6406
c8.57227 -5.55762 22.4854 -10.7041 40.3203 -14.3994c35.6689 -7.3916 86.4736 -9.91992 142.72 -9.91992s107.051 2.52832 142.72 9.91992c17.835 3.69531 31.748 8.8418 40.3203 14.3994c8.57129 5.55859 11.5195 10.2207 11.5195 16.6406
c0 0.31543 0.269531 0.181641 -0.959961 1.59961c-1.22852 1.41895 -3.98633 3.68359 -7.67969 6.40039c-7.38672 5.43262 -18.6357 13.0684 -29.7598 25.2793c-22.248 24.4229 -43.5205 67.4141 -43.5205 151.04c0 58.8096 -34.0273 100.982 -88.6396 110.721z
M220.8 18.5596c-3.70117 -6.1543 -5.75977 -13.3584 -5.75977 -21.1191c0 -22.752 18.209 -40.96 40.96 -40.96s40.96 18.208 40.96 40.96c0 7.68555 -2.09961 14.9746 -5.75977 21.1191c-11.4814 -0.257812 -23.1709 -0.639648 -35.2002 -0.639648
s-23.7188 0.381836 -35.2002 0.639648z" />
    <glyph glyph-name="expand-arrow" unicode="&#xf13e;" 
d="M49.5996 315.84l206.4 -206.399l206.4 206.399l21.4395 -21.4395l-227.84 -227.841l-227.84 227.841z" />
    <glyph glyph-name="xls" unicode="&#xf17e;" 
d="M61.4404 448h10.2393h225.28h4.16016l3.2002 -2.87988l143.359 -143.36l2.87988 -3.2002v-4.15918v-348.16v-10.2402h-10.2393h-368.641h-10.2393v10.2402v491.52v10.2402zM81.9199 427.52v-471.039h348.16v327.68h-133.12h-10.2402v10.2402v133.119h-204.8zM307.2 412.8
v-108.16h108.16zM329.92 197.76c7.48535 0 14.1465 -2.24512 17.2803 -4.16016l-3.2002 -16c-3.30762 2.08887 -8.13281 3.84082 -14.4004 3.84082c-10.6182 0 -15.6797 -6.93262 -15.6797 -14.0801c0 -9.05273 4.62891 -13.4609 16.6396 -21.1201
c14.7871 -9.73828 20.8008 -21.0771 20.8008 -33.6006c0 -21.0635 -15.0869 -34.2393 -36.1602 -34.2393c-8.7041 0 -17.4746 2.35254 -21.1201 4.7998l3.2002 16c4.35156 -2.61133 11.8271 -4.7998 17.9199 -4.7998c11.4893 0 17.9199 6.56055 17.9199 16.3193
c0 9.39062 -5.7959 14.8154 -15.3604 21.4404c-13.0459 8.3457 -22.0801 20.252 -22.0801 32.96c0 18.2783 12.3066 32.6396 34.2402 32.6396zM158.4 196.8h19.1992l8.32031 -24.3193c2.08887 -5.74512 3.81738 -11.7432 6.08008 -18.8809h0.320312
c2.2627 7.66016 4.01855 13.1074 5.75977 19.2002l7.67969 24h18.5605l-22.4004 -57.9199l23.6797 -59.5195h-19.5195l-8.95996 24.6396c-2.2627 6.61523 -4.13672 12.8203 -6.40039 20.4805h-0.639648c-2.2627 -7.66016 -4.16504 -14.3496 -6.08008 -20.8008l-8 -24.3193
h-18.5596l22.7197 59.8398zM236.48 196.8h18.5596v-101.76h31.3604v-15.6797h-49.9199v117.439z" />
    <glyph glyph-name="crown" unicode="&#xf131;" 
d="M256 386.56c22.5 0 40.96 -18.459 40.96 -40.96c0 -12.2939 -5.72949 -23.1904 -14.4004 -30.7197l69.7607 -120.64l70.0801 35.2002c-1.54395 4.29688 -2.56055 8.95312 -2.56055 13.7598c0 22.5 18.46 40.96 40.96 40.96s40.96 -18.46 40.96 -40.96
c0 -22.2871 -18.1104 -40.6143 -40.3193 -40.96l-31.3604 -134.08v-60.4805c-0.000976562 -5.65137 -4.58789 -10.2393 -10.2402 -10.2393h-327.68c-5.65234 0 -10.2393 4.58789 -10.2402 10.2393v60.4805l-31.3604 134.08
c-22.209 0.345703 -40.3193 18.6729 -40.3193 40.96c0 22.5 18.459 40.96 40.96 40.96c22.5 0 40.96 -18.46 40.96 -40.96c0 -5.26953 -1.04004 -10.3994 -2.87988 -15.04l69.4395 -34.8799l70.4004 121.92c-8.47656 7.52246 -14.0801 18.2656 -14.0801 30.3994
c0 22.501 18.46 40.96 40.96 40.96zM256 366.08c-11.4316 0 -20.4805 -9.04785 -20.4805 -20.4805c0 -7.6543 4.12793 -14.083 10.2402 -17.5996c0.557617 -0.208984 1.41797 -0.639648 1.91992 -0.959961c0.131836 -0.0585938 0.1875 -0.264648 0.320312 -0.320312
c0.0439453 0.000976562 0.116211 0.00195312 0.160156 0.00195312s0.115234 -0.000976562 0.160156 -0.00195312c0.123047 -0.0498047 0.194336 -0.272461 0.319336 -0.319336c0.179688 -0.0830078 0.466797 -0.225586 0.640625 -0.320312
c2.09668 -0.710938 4.3623 -0.959961 6.71973 -0.959961c1.42871 0 2.81836 0.0498047 4.16016 0.320312c1.42188 1.81641 4.43262 3.53711 6.71973 3.83984c0.176758 0.0107422 0.462891 0.0195312 0.639648 0.0195312
c0.177734 0 0.463867 -0.00878906 0.640625 -0.0195312c5.0127 3.70898 8.32031 9.50977 8.32031 16.3193c0 11.4326 -9.04883 20.4805 -20.4805 20.4805zM247.36 305.6l-75.5205 -130.88c-1.60645 -2.94629 -5.63477 -5.33789 -8.99121 -5.33789
c-1.39648 0 -3.5332 0.52832 -4.76855 1.17773l-81.5996 40.96c-1.93848 -1.55664 -3.88086 -2.96973 -6.08008 -4.15918l29.7598 -128h311.68l29.7598 128c-2.66699 1.44238 -5.08496 3.14453 -7.35938 5.12012l-81.6006 -40.9609
c-1.17969 -0.580078 -3.2041 -1.05078 -4.51855 -1.05078c-3.30273 0 -7.29883 2.33496 -8.9209 5.21094l-74.8799 129.92c-2.6582 -0.547852 -5.50781 -0.959961 -8.32031 -0.959961c-2.9209 0 -5.88672 0.370117 -8.63965 0.959961zM51.2002 263.68
c-11.4326 0 -20.4805 -9.04785 -20.4805 -20.4795c0 -11.4326 9.04785 -20.4805 20.4805 -20.4805c0.655273 0 1.28125 -0.0576172 1.91992 0c0.220703 0.0205078 0.420898 0.292969 0.639648 0.320312c0.0439453 0.000976562 0.116211 0.000976562 0.160156 0.000976562
s0.116211 0 0.160156 -0.000976562c1.00781 0.473633 2.72754 0.90332 3.83984 0.959961c0.0947266 0.0332031 0.225586 -0.0341797 0.320312 0c2.68457 0.970703 5.02734 2.55664 7.04004 4.48047c-0.000976562 0.0439453 -0.00195312 0.115234 -0.00195312 0.15918
c0 0.0449219 0.000976562 0.116211 0.00195312 0.160156c0.616211 1.28223 2.0498 3.00293 3.2002 3.83984c0.0253906 0.0429688 0.293945 -0.0429688 0.319336 0c1.82227 3.06934 2.87988 6.68262 2.87988 10.5605c0 11.4316 -9.04785 20.4795 -20.4795 20.4795z
M460.8 263.68c-11.4316 0 -20.4795 -9.04785 -20.4795 -20.4795c0 -3.77734 1.14453 -7.22363 2.87988 -10.2402c0.917969 -0.817383 2.06445 -2.39453 2.55957 -3.51953c2.40723 -2.63672 5.43848 -4.68066 8.95996 -5.76074
c0.820312 -0.0615234 2.11133 -0.348633 2.87988 -0.639648c1.05176 -0.162109 2.09961 -0.320312 3.2002 -0.320312c11.4326 0 20.4805 9.04785 20.4805 20.4805c0 11.4316 -9.04785 20.4795 -20.4805 20.4795zM102.4 58.8799v-40.96h307.199v40.96h-307.199z" />
    <glyph glyph-name="back" unicode="&#xf106;" 
d="M358.4 419.84l21.4395 -21.4395l-206.399 -206.4l206.399 -206.4l-21.4395 -21.4395l-227.841 227.84z" />
    <glyph glyph-name="checked-checkbox" unicode="&#xf12b;" 
d="M426.667 405.333c23.4668 0 42.666 -19.1992 42.666 -42.666v-341.334c0 -23.4668 -19.1992 -42.666 -42.666 -42.666h-341.334c-23.4668 0 -42.666 19.1992 -42.666 42.666v341.334c0 23.4668 19.1992 42.666 42.666 42.666h341.334zM198.4 70.4004l221.866 215.466
l-29.8662 29.8672l-192 -185.6l-76.8008 76.7998l-29.8662 -29.8672z" />
    <glyph glyph-name="empty-box" unicode="&#xf13b;" 
d="M156.48 386.56c0.131836 0.00683594 0.34668 0.0117188 0.479492 0.0117188s0.347656 -0.00488281 0.480469 -0.0117188c0.131836 0.00683594 0.34668 0.0117188 0.479492 0.0117188s0.347656 -0.00488281 0.480469 -0.0117188h281.92
c0.0439453 0.000976562 0.115234 0.00195312 0.160156 0.00195312c0.0439453 0 0.115234 -0.000976562 0.15918 -0.00195312c0.0888672 0.00292969 0.232422 0.00585938 0.320312 0.00585938c0.0888672 0 0.231445 -0.00292969 0.320312 -0.00585938
c0.0439453 0.000976562 0.115234 0.00195312 0.160156 0.00195312c0.0439453 0 0.115234 -0.000976562 0.15918 -0.00195312c0.0888672 0.00292969 0.232422 0.00585938 0.320312 0.00585938c0.0888672 0 0.231445 -0.00292969 0.320312 -0.00585938
c0.0439453 0.000976562 0.115234 0.00195312 0.160156 0.00195312c0.0439453 0 0.115234 -0.000976562 0.15918 -0.00195312c0.179688 -0.0820312 0.466797 -0.224609 0.640625 -0.319336c0.0439453 0 0.115234 0.000976562 0.160156 0.000976562
c0.0439453 0 0.115234 -0.000976562 0.15918 -0.000976562c0.180664 -0.0820312 0.466797 -0.225586 0.640625 -0.320312c0.649414 -0.19043 1.65332 -0.621094 2.24023 -0.959961c0.183594 -0.168945 0.470703 -0.455078 0.639648 -0.639648
c0.0439453 0 0.116211 0.000976562 0.160156 0.000976562s0.115234 -0.000976562 0.160156 -0.000976562c0.09375 -0.173828 0.237305 -0.460938 0.319336 -0.640625c0.0449219 0.000976562 0.116211 0.00195312 0.160156 0.00195312
s0.116211 -0.000976562 0.160156 -0.00195312c0.0947266 -0.172852 0.238281 -0.459961 0.320312 -0.639648c0.929688 -1.08105 1.93359 -3.08789 2.23926 -4.48047l59.8408 -99.5195c0.854492 -1.37207 1.54785 -3.79785 1.54785 -5.41406
c0 -2.2627 -1.26758 -5.42773 -2.82812 -7.06641l-58.5605 -58.5596v-97.9199v-0.0078125c0 -1.98047 -1.00293 -4.84473 -2.23926 -6.39258l-80.6406 -100.8c-0.168945 -0.18457 -0.455078 -0.470703 -0.639648 -0.639648l-0.639648 -0.959961
c-0.168945 -0.18457 -0.456055 -0.47168 -0.640625 -0.640625c-0.168945 -0.18457 -0.455078 -0.470703 -0.639648 -0.639648c-0.866211 -0.723633 -2.44238 -1.58398 -3.52051 -1.91992c-0.259766 -0.101562 -0.69043 -0.245117 -0.959961 -0.320312
c-0.521484 -0.138672 -1.38086 -0.282227 -1.91992 -0.319336c-0.0439453 -0.000976562 -0.115234 -0.00195312 -0.160156 -0.00195312c-0.0439453 0 -0.115234 0.000976562 -0.15918 0.00195312h-1.60059h-111.68h-193.92c-5.65234 0 -10.2393 4.58789 -10.2402 10.2393
v208.641l-26.2402 -13.1201c-1.20215 -0.608398 -3.27246 -1.10156 -4.62012 -1.10156c-5.65332 0 -10.2412 4.58789 -10.2412 10.2412c0 1.34766 0.493164 3.41699 1.10156 4.62012l40.3203 80.3203c0.138672 0.456055 0.425781 1.17285 0.639648 1.59961
c0.0869141 0.0908203 0.229492 0.233398 0.320312 0.320312c0.0820312 0.179688 0.225586 0.46582 0.319336 0.639648c0.237305 0.374023 0.667969 0.947266 0.959961 1.28027c0 0.0439453 -0.000976562 0.115234 -0.000976562 0.160156
c0 0.0439453 0.000976562 0.115234 0.000976562 0.160156c0.173828 0.09375 0.460938 0.237305 0.640625 0.319336c0.0859375 0.0908203 0.229492 0.233398 0.320312 0.320312c0.557617 0.525391 1.56152 1.24219 2.23926 1.59961
c0.0439453 0.000976562 0.116211 0.00195312 0.160156 0.00195312s0.116211 -0.000976562 0.160156 -0.00195312c0.0859375 0.0908203 0.229492 0.234375 0.320312 0.320312l104.64 80.3203c1.08008 0.929688 3.08789 1.93359 4.48047 2.23926zM161.6 366.08
l-80.3193 -61.4404h272.64l61.4404 61.4404h-253.761zM438.4 359.68l-67.2002 -67.1992l50.5596 -83.8408l67.2002 67.2002zM61.4404 284.16v-51.2002c0.0107422 -0.176758 0.0195312 -0.462891 0.0195312 -0.639648s-0.00878906 -0.463867 -0.0195312 -0.640625v-213.76
h183.68h103.04v266.24h-286.72zM368.64 257.92v-221.12l61.4404 76.7998v73.9199l-2.87988 -2.87988c-1.64453 -1.59375 -4.83789 -2.88672 -7.12695 -2.88672c-3.2666 0 -7.24219 2.29688 -8.87305 5.12695zM40.96 250.88l-7.67969 -15.3604l7.67969 3.84082v11.5195z
M150.72 243.2c0.132812 0.00585938 0.347656 0.0107422 0.480469 0.0107422s0.347656 -0.00488281 0.479492 -0.0107422c0.132812 0.00585938 0.347656 0.0107422 0.480469 0.0107422s0.347656 -0.00488281 0.479492 -0.0107422
c0.132812 0.00585938 0.347656 0.0107422 0.480469 0.0107422s0.347656 -0.00488281 0.479492 -0.0107422h102.4c0.0400391 0 0.104492 0.000976562 0.144531 0.000976562c5.65332 0 10.2412 -4.58789 10.2412 -10.2412s-4.58789 -10.2412 -10.2412 -10.2412
c-0.0400391 0 -0.104492 0.000976562 -0.144531 0.000976562h-102.4c-0.395508 -0.0556641 -1.04004 -0.100586 -1.43945 -0.100586c-5.70801 0 -10.3408 4.63281 -10.3408 10.3408c0 4.96191 3.9873 9.54883 8.90039 10.2402z" />
    <glyph glyph-name="download" unicode="&#xf139;" 
d="M255.04 438.08c0.265625 0.0253906 0.698242 0.0458984 0.96582 0.0458984c5.65234 0 10.2402 -4.58789 10.2402 -10.2412c0 -0.100586 -0.00292969 -0.264648 -0.00585938 -0.365234v-312.96l64.3193 64.3203c1.68359 1.68262 4.98047 3.04883 7.36035 3.04883
c5.74609 0 10.4082 -4.66309 10.4082 -10.4092c0 -2.37988 -1.36523 -5.67676 -3.04785 -7.35938l-81.9199 -81.9199l-7.36035 -7.04004l-7.36035 7.04004l-81.9199 81.9199c-1.81738 1.67871 -3.29297 5.04883 -3.29297 7.52344c0 4.71973 3.76953 9.23438 8.41309 10.0762
c0.609375 0.136719 1.60938 0.24707 2.2334 0.24707c2.39941 0 5.7002 -1.40137 7.36719 -3.12695l64.3193 -64.3203v312.96c-0.000976562 0.0683594 -0.00292969 0.178711 -0.00292969 0.24707c0 4.52734 3.58594 9.00391 8.00293 9.99316
c0.347656 0.111328 0.920898 0.254883 1.28027 0.320312zM71.6797 284.16h10.2402h92.1602c0.0400391 0 0.104492 0.000976562 0.144531 0.000976562c5.65332 0 10.2412 -4.58789 10.2412 -10.2412s-4.58789 -10.2412 -10.2412 -10.2412
c-0.0400391 0 -0.104492 0.000976562 -0.144531 0.000976562h-81.9199v-307.199h327.68v307.199h-81.9199c-0.0400391 0 -0.104492 -0.000976562 -0.144531 -0.000976562c-5.65332 0 -10.2412 4.58789 -10.2412 10.2412s4.58789 10.2412 10.2412 10.2412
c0.0400391 0 0.104492 -0.000976562 0.144531 -0.000976562h92.1602h10.2402v-10.2402v-327.68v-10.2402h-10.2402h-348.16h-10.2402v10.2402v327.68v10.2402z" />
    <glyph glyph-name="portrait" unicode="&#xf15c;" 
d="M177.28 448c0.131836 0.00585938 0.347656 0.0117188 0.479492 0.0117188c0.132812 0 0.347656 -0.00585938 0.480469 -0.0117188h5.12012h0.0195312c0.711914 0 1.85059 -0.143555 2.54004 -0.320312l68.1602 -16.96h2.87988l68.1602 16.96
c0.689453 0.176758 1.82812 0.320312 2.54004 0.320312h0.0195312h5.12012c0.0888672 0.00292969 0.232422 0.00488281 0.320312 0.00488281c0.717773 0 1.86523 -0.145508 2.55957 -0.325195l68.8008 -19.5195h0.639648
c0.0439453 0.000976562 0.115234 0.000976562 0.160156 0.000976562c0.0439453 0 0.115234 0 0.160156 -0.000976562c0.608398 0.157227 1.61133 0.299805 2.23926 0.320312h0.959961v-0.320312c28.6943 7.52148 57.2461 -18.4043 50.8799 -48.96l-7.03906 -33.2803
v-0.320312l17.2793 -74.5596c0.157227 -0.608398 0.300781 -1.6123 0.320312 -2.24023v-5.12012v-0.0195312c0 -0.711914 -0.143555 -1.85059 -0.320312 -2.54004l-17.2793 -68.1602v-2.87988l17.2793 -68.1602c0.176758 -0.689453 0.320312 -1.82812 0.320312 -2.54004
v-0.0195312v-5.12012v-0.0205078c0 -0.711914 -0.143555 -1.84961 -0.320312 -2.54004l-17.2793 -69.4395v-0.959961l7.03906 -38.7207v-0.319336c6.04102 -30.1777 -21.7754 -55.9512 -50.8799 -48.6406v-0.319336h-0.959961h-4.16016l-68.1592 -16.96
c-0.69043 -0.176758 -1.82812 -0.320312 -2.54004 -0.320312h-0.0205078h-5.12012h-0.0195312c-0.711914 0 -1.85059 0.143555 -2.54004 0.320312l-68.1602 16.96h-2.87988l-68.1602 -16.96c-0.689453 -0.176758 -1.82812 -0.320312 -2.54004 -0.320312h-0.0195312h-5.12012
h-0.0205078c-0.711914 0 -1.84961 0.143555 -2.54004 0.320312l-69.7598 17.2793c-0.0439453 0 -0.116211 -0.000976562 -0.160156 -0.000976562s-0.115234 0.000976562 -0.160156 0.000976562c-0.608398 -0.15625 -1.61133 -0.299805 -2.23926 -0.319336h-0.959961
v0.319336c-28.6934 -7.51953 -57.2461 18.4053 -50.8809 48.96l6.7207 35.8408v0.319336v2.56055l-16.96 69.4395c-0.176758 0.69043 -0.320312 1.82812 -0.320312 2.54004v0.0205078v5.12012c0.0195312 0.62793 0.163086 1.63086 0.320312 2.23926l16.96 69.4404v2.87988
l-16.96 69.4404c-0.157227 0.608398 -0.300781 1.61133 -0.320312 2.23926v5.12012v0.0205078c0 0.711914 0.143555 1.84961 0.320312 2.54004l16.96 70.3994v2.56055v0.319336l-6.7207 35.8408c-0.0898438 0.0859375 -0.233398 0.229492 -0.319336 0.319336
c-5.03613 30.2158 22.6953 56.0918 51.2002 48.6406v0.319336h0.959961h3.83984l68.4795 16.96c0.43457 0.124023 1.15137 0.267578 1.60059 0.320312zM179.52 427.52l-68.4795 -16.96c-0.69043 -0.175781 -1.82812 -0.319336 -2.54004 -0.319336h-0.0195312h-5.12012
h-0.959961c-1.00293 0.00390625 -2.58008 0.291016 -3.52051 0.639648c-15.3164 5.56934 -30.1436 -7.93945 -27.2002 -25.5996h-0.319336l7.35938 -37.7607c0.0253906 -0.263672 0.0449219 -0.694336 0.0449219 -0.959961
c0 -0.264648 -0.0195312 -0.695312 -0.0449219 -0.959961v-4.15918c-0.0195312 -0.628906 -0.163086 -1.63184 -0.319336 -2.24023l-16.96 -70.4004v-2.87988l16.96 -69.4395c0.175781 -0.69043 0.319336 -1.82812 0.319336 -2.54102v-0.0195312v-5.12012
c-0.0195312 -0.62793 -0.163086 -1.63184 -0.319336 -2.24023l-16.96 -69.4395v-2.87988l16.96 -69.4404c0.15625 -0.608398 0.299805 -1.61133 0.319336 -2.24023v-4.15918c0.0253906 -0.264648 0.0449219 -0.695312 0.0449219 -0.959961
c0 -0.265625 -0.0195312 -0.696289 -0.0449219 -0.959961l-7.35938 -37.7607c0 -0.0439453 0.000976562 -0.115234 0.000976562 -0.160156c0 -0.0439453 -0.000976562 -0.115234 -0.000976562 -0.15918c-3.61035 -17.3262 12.2969 -30.8154 27.5195 -25.2803
c0.94043 0.348633 2.51758 0.635742 3.52051 0.639648c2.7041 0.852539 5.54199 0.543945 8.63965 -0.639648v0.320312l68.4795 -16.96h2.56055l68.4795 16.96c0.608398 0.15625 1.6123 0.299805 2.24023 0.319336h5.12012h0.0195312
c0.712891 0 1.85059 -0.143555 2.54102 -0.319336l68.4795 -16.96h2.55957l68.4805 16.96c0.69043 0.175781 1.82812 0.319336 2.54004 0.319336h0.0195312h5.12012h0.959961c0.164062 0.00976562 0.429688 0.0175781 0.59375 0.0175781
c0.731445 0 1.89941 -0.151367 2.60645 -0.336914c16.6367 -5.78711 31.1855 7.36719 27.5205 24.96c-0.000976562 0.0439453 -0.00195312 0.115234 -0.00195312 0.15918c0 0.0449219 0.000976562 0.116211 0.00195312 0.160156l-7.04004 38.7207
c-0.139648 0.521484 -0.282227 1.38086 -0.320312 1.91992v4.15918v0.0205078c0 0.711914 0.143555 1.84961 0.320312 2.54004l17.2793 69.1201v2.87988l-17.2793 68.4795c-0.157227 0.608398 -0.300781 1.6123 -0.320312 2.24023v5.12012v0.0195312
c0 0.712891 0.143555 1.85059 0.320312 2.54102l17.2793 68.4795v2.87988l-17.2793 73.2803c-0.176758 0.689453 -0.320312 1.82812 -0.320312 2.54004v0.0195312v3.83984c0.0195312 0.628906 0.163086 1.63184 0.320312 2.24023l7.04004 33.9199
c3.60938 17.3262 -11.9775 30.4961 -27.2002 24.96c-0.94043 -0.348633 -2.51758 -0.635742 -3.52051 -0.639648h-0.959961c-2.45898 -0.625 -4.94922 -0.0830078 -7.67969 0.959961l-0.320312 -0.639648l-68.4795 19.1992h-2.24023l-68.4795 -16.96
c-0.69043 -0.175781 -1.82812 -0.319336 -2.54102 -0.319336h-0.0195312h-5.12012c-0.62793 0.0195312 -1.63184 0.163086 -2.24023 0.319336l-68.4795 16.96h-2.56055zM110.72 386.56c0.132812 0.00683594 0.347656 0.0117188 0.480469 0.0117188
s0.347656 -0.00488281 0.479492 -0.0117188c0.132812 0.00683594 0.347656 0.0117188 0.480469 0.0117188s0.347656 -0.00488281 0.479492 -0.0117188h286.721c5.65137 0 10.2393 -4.58789 10.2393 -10.2393v-359.681
c0.0449219 -0.351562 0.0800781 -0.924805 0.0800781 -1.2793c0 -0.355469 -0.0351562 -0.928711 -0.0800781 -1.28027v-6.40039c0 -5.65137 -4.58789 -10.2393 -10.2393 -10.2393h-286.721c-5.65137 0 -10.2393 4.58789 -10.2393 10.2393v3.52051
c-0.544922 1.14941 -0.986328 3.11523 -0.986328 4.38672c0 0.203125 0.0117188 0.53125 0.0263672 0.733398c0.177734 3.0332 0.492188 5.81445 0.959961 8.63965v351.36c-0.000976562 0.0498047 -0.00195312 0.129883 -0.00195312 0.179688
c0 4.67676 3.72852 9.18359 8.32129 10.0596zM122.88 366.08v-302.08c10.2588 9.71484 22.6729 16.2744 34.5605 21.4404c12.7324 5.53223 24.9121 10.0342 34.2393 14.7197c8.94922 4.49512 14.1602 8.71191 16.3203 13.7598
c0.708984 9.28027 0.947266 16.4277 0.959961 24.96c-0.80957 0.987305 -2.08691 1.76855 -2.87988 2.87988c-2.11426 2.96387 -4.14844 6.37695 -6.08008 10.2402c-3.25195 6.50488 -5.44434 14.2734 -7.04004 22.0801c-7.28809 4.40234 -13.0088 12.2285 -14.7197 25.9199
c-1.05469 8.43359 1.98828 14.3887 5.75977 19.2002c-6.40918 27.4736 -8.53906 54.0059 0.959961 75.8398c10.1006 23.2148 33.9141 38.8086 69.7598 39.3604h0.320312c9.50684 0 18.0664 -1.05664 25.5996 -3.84082c5.33301 -1.9707 8.97852 -6.4502 12.8008 -10.5596
c13.1318 -2.56836 23.6768 -8.89453 30.0791 -17.9199c6.81055 -9.59961 9.7002 -21.1416 10.5605 -32.3203c1.51465 -19.6914 -2.68359 -38.0986 -6.40039 -50.5596c3.72559 -4.93652 6.00684 -11.2217 5.12012 -19.2002
c-1.70312 -13.623 -7.49121 -21.4863 -14.7197 -25.9199c-1.59473 -7.8125 -4.10547 -15.5713 -7.36035 -22.0801c-1.93164 -3.86328 -3.96582 -7.27637 -6.08008 -10.2402c-0.704102 -0.987305 -1.85449 -1.67188 -2.55957 -2.55957
c0.00976562 -8.68652 0.242188 -15.8818 0.959961 -25.2803c2.16895 -5.06641 7.04395 -9.51172 16 -14.0801c9.33594 -4.76172 21.8428 -9.12695 34.5596 -14.7197c12.3291 -5.42188 25.0791 -12.1025 35.5205 -22.4004v303.36h-266.24zM255.04 313.92
c-30.7139 -0.472656 -44.1484 -10.6709 -51.2002 -26.8799s-6.2334 -40.8359 0.640625 -67.8398l1.91992 -7.04004l-6.08008 -4.16016c-0.0136719 -0.00878906 -2.14258 -1.10352 -1.60059 -5.44043c1.28711 -10.2949 4.69629 -12.1865 4.48047 -12.4795h7.35938
l1.28027 -8.95996c0.799805 -5.99609 3.6709 -13.7422 6.71973 -19.8398c1.52441 -3.04883 3.1709 -5.84375 4.48047 -7.68066c0.655273 -0.917969 1.28125 -1.57129 1.59961 -1.91992c0.12207 -0.0683594 0.293945 -0.319336 0.320312 -0.319336l4.48047 -2.56055v-6.08008
c0 -11.2637 -0.225586 -19.6562 -1.28027 -32.3193v-1.60059l-0.320312 -1.28027c-4.68164 -12.6035 -15.6309 -20.2686 -26.8799 -25.9199c-11.249 -5.65039 -23.8047 -9.62891 -35.5195 -14.7197c-11.7158 -5.09082 -22.4395 -11.0254 -30.0801 -18.8799
c-6.19434 -6.36719 -10.5605 -13.9229 -12.4805 -24.6396v-5.44043h265.92c-1.2998 13.3486 -5.94531 22.1016 -13.1201 29.4404c-7.65332 7.82715 -18.3486 14.04 -30.0801 19.1992c-11.7305 5.15918 -24.5996 9.30664 -35.8398 15.04
c-11.2402 5.73438 -21.8838 13.3311 -26.5596 25.9199l-0.320312 1.28027l-0.320312 1.60059c-1.05469 12.6631 -0.959961 21.0557 -0.959961 32.3193v6.08008l4.48047 2.56055c-0.129883 -0.000976562 0.9375 0.862305 1.91992 2.23926
c1.30957 1.83691 2.95508 4.63184 4.48047 7.68066c3.04883 6.09766 5.91992 13.8438 6.71973 19.8398l0.959961 8.95996h7.35938c-0.136719 0.329102 3.4541 2.26855 4.80078 12.1602c0.0195312 0.175781 -0.0117188 0.154297 0 0.319336
c0.179688 2.57422 -0.594727 4.26562 -0.959961 4.80078l-8 2.87988l3.19922 9.59961c3.24512 9.73438 8.39258 30.7412 7.04004 48.3203c-0.675781 8.78906 -2.90527 16.7031 -6.71973 22.0801c-3.81348 5.37598 -8.84961 9.11328 -18.5596 10.5596l-5.12012 0.640625
l-2.24023 4.47949c-1.18359 2.13086 -3.11719 3.87207 -7.36035 5.44043c-4.24219 1.56738 -10.6592 2.55957 -18.5596 2.55957z" />
    <glyph glyph-name="calendar" unicode="&#xf109;" 
d="M112.64 448h20.4805c5.34766 0 10.8594 -1.89941 14.7197 -5.75977c3.86133 -3.86133 5.75977 -9.37305 5.75977 -14.7207v-20.4795h204.801v20.4795c0 5.34766 1.89844 10.8594 5.75977 14.7207c3.86035 3.86035 9.37207 5.75977 14.7197 5.75977h20.4805
c5.34766 0 10.8584 -1.89941 14.7197 -5.75977c3.86035 -3.86133 5.75977 -9.37305 5.75977 -14.7207v-20.4795h71.6797c5.34766 0 10.8594 -1.89941 14.7207 -5.75977c3.86035 -3.86133 5.75977 -9.37305 5.75977 -14.7207v-430.079
c0 -5.34766 -1.89941 -10.8594 -5.75977 -14.7207c-3.86133 -3.86035 -9.37305 -5.75977 -14.7207 -5.75977h-471.039c-5.34766 0 -10.8594 1.89941 -14.7207 5.75977c-3.86035 3.86133 -5.75977 9.37305 -5.75977 14.7207v430.079
c0 5.34766 1.89941 10.8594 5.75977 14.7207c3.86133 3.86035 9.37305 5.75977 14.7207 5.75977h71.6797v20.4795c0 5.34766 1.89941 10.8594 5.75977 14.7207c3.86133 3.86035 9.37207 5.75977 14.7197 5.75977zM112.64 427.52v-61.4395h20.4805v61.4395h-20.4805z
M378.88 427.52v-61.4395h20.4805v61.4395h-20.4805zM20.4805 386.56v-81.9199h471.039v81.9199h-71.6797v-20.4795c0 -5.34766 -1.89941 -10.8594 -5.75977 -14.7197c-3.86133 -3.86133 -9.37207 -5.76074 -14.7197 -5.76074h-20.4805
c-5.34766 0 -10.8594 1.89941 -14.7197 5.76074c-3.86133 3.86035 -5.75977 9.37207 -5.75977 14.7197v20.4795h-204.801v-20.4795c0 -5.34766 -1.89844 -10.8594 -5.75977 -14.7197c-3.86035 -3.86133 -9.37207 -5.76074 -14.7197 -5.76074h-20.4805
c-5.34766 0 -10.8584 1.89941 -14.7197 5.76074c-3.86035 3.86035 -5.75977 9.37207 -5.75977 14.7197v20.4795h-71.6797zM20.4805 284.16v-327.68h471.039v327.68h-471.039zM69.7598 232.96c0.132812 0.00585938 0.347656 0.0117188 0.480469 0.0117188
c0.131836 0 0.347656 -0.00585938 0.479492 -0.0117188c0.132812 0.00585938 0.347656 0.0117188 0.480469 0.0117188s0.347656 -0.00585938 0.479492 -0.0117188h368.641c5.65137 -0.000976562 10.2393 -4.58789 10.2393 -10.2402v-215.04
c0 -5.65137 -4.58789 -10.2393 -10.2393 -10.2393h-133.12h-235.521c-5.65137 0 -10.2393 4.58789 -10.2393 10.2393v215.04c-0.000976562 0.0498047 -0.00195312 0.130859 -0.00195312 0.180664c0 4.67676 3.72754 9.18359 8.32129 10.0596zM81.9199 212.48v-51.2002
h71.6797v51.2002h-71.6797zM174.08 212.48v-51.2002h71.6797v51.2002h-71.6797zM266.24 212.48v-51.2002h71.6797v51.2002h-71.6797zM358.4 212.48v-51.2002h71.6797v51.2002h-71.6797zM81.9199 140.8v-51.2002h71.6797v51.2002h-71.6797zM174.08 140.8v-51.2002h71.6797
v51.2002h-71.6797zM266.24 140.8v-51.2002h71.6797v51.2002h-71.6797zM358.4 140.8v-51.2002h71.6797v51.2002h-71.6797zM81.9199 69.1201v-51.2002h71.6797v51.2002h-71.6797zM174.08 69.1201v-51.2002h71.6797v51.2002h-71.6797zM266.24 69.1201v-51.2002h40.96h30.7197
v51.2002h-71.6797zM358.4 69.1201v-51.2002h71.6797v51.2002h-71.6797z" />
    <glyph glyph-name="music-video" unicode="&#xf153;" 
d="M0 376.32h10.2402h491.52h10.2402v-10.2402v-307.2v-10.2402h-10.2402h-491.52h-10.2402v10.2402v307.2v10.2402zM20.4805 355.84v-286.72h471.039v286.72h-471.039zM255.68 314.56c34.376 0 45.6016 -20.4795 82.2402 -20.4795
c6.56348 0 10.2402 -1.70508 10.2402 -9.59961v-31.3604c0 -9.72852 -9.91992 -9.28027 -9.91992 -9.28027c-36.7109 0 -40.7402 19.8398 -67.2002 19.8398c-4.13672 0 -4.7998 -3.46289 -4.7998 -10.5596v-102.08c0 -13.8447 -2.51953 -40.96 -40.96 -40.96
c-38.4414 0 -40.96 18.4219 -40.96 30.7197c0 18.2578 11.7344 30.7197 40.96 30.7197c20.4795 0 20.4795 9.05273 20.4795 20.4805v112.96c0 5.4375 1.67676 9.59961 9.91992 9.59961zM110.72 28.1602c0.132812 0.00585938 0.347656 0.0107422 0.480469 0.0107422
s0.347656 -0.00488281 0.479492 -0.0107422c0.132812 0.00585938 0.347656 0.0107422 0.480469 0.0107422s0.347656 -0.00488281 0.479492 -0.0107422h286.721c0.0400391 0 0.104492 0.000976562 0.144531 0.000976562c5.65332 0 10.2412 -4.58789 10.2412 -10.2412
s-4.58789 -10.2412 -10.2412 -10.2412c-0.0400391 0 -0.104492 0.000976562 -0.144531 0.000976562h-286.721c-0.263672 -0.0244141 -0.694336 -0.0449219 -0.959961 -0.0449219c-5.67676 0 -10.2842 4.6084 -10.2842 10.2852c0 5.16992 4.17676 9.75781 9.32422 10.2402z
" />
    <glyph glyph-name="search-filled" unicode="&#xf15e;" 
d="M215.04 417.28c96.2559 0 174.08 -77.8242 174.08 -174.08c0 -39.7148 -13.5156 -76.0127 -35.8398 -105.28l124.16 -123.84l-43.5205 -43.5205l-125.76 125.761c-26.9541 -17.1191 -58.7734 -27.2002 -93.1201 -27.2002c-96.2559 0 -174.08 77.8242 -174.08 174.08
s77.8242 174.08 174.08 174.08zM215.04 376.32c-73.7285 0 -133.12 -59.3926 -133.12 -133.12c0 -73.7285 59.3916 -133.12 133.12 -133.12c73.7275 0 133.12 59.3916 133.12 133.12c0 73.7275 -59.3926 133.12 -133.12 133.12z" />
    <glyph glyph-name="delete-3" unicode="&#xf135;" 
d="M215.04 427.52h81.9199c16.8496 0 30.7197 -13.8701 30.7197 -30.7197v-20.4795h79.6807h4.15918h18.5605c0.0400391 0 0.104492 0.000976562 0.144531 0.000976562c5.65332 0 10.2412 -4.58789 10.2412 -10.2412s-4.58789 -10.2412 -10.2412 -10.2412
c-0.0400391 0 -0.104492 0.000976562 -0.144531 0.000976562h-10.2402v-368.64c0 -16.8496 -13.8701 -30.7197 -30.7197 -30.7197h-266.24c-16.8496 0 -30.7197 13.8701 -30.7197 30.7197v368.64h-10.2402c-0.132812 -0.00585938 -0.347656 -0.0107422 -0.479492 -0.0107422
c-5.65918 0 -10.252 4.5918 -10.252 10.251c0 5.39941 4.37793 9.9873 9.77148 10.2402c0.132812 0.00585938 0.347656 0.0107422 0.480469 0.0107422c0.131836 0 0.34668 -0.00488281 0.479492 -0.0107422h18.2402c0.568359 0.117188 1.5 0.212891 2.08008 0.212891
s1.51172 -0.0957031 2.08008 -0.212891h80v20.4795c0 16.8496 13.8701 30.7197 30.7197 30.7197zM215.04 407.04c-5.67871 0 -10.2402 -4.56152 -10.2402 -10.2402v-20.4795h102.4v20.4795c0 5.67871 -4.56152 10.2402 -10.2402 10.2402h-81.9199zM112.64 355.84v-368.64
c0 -5.67871 4.56152 -10.2402 10.2402 -10.2402h266.24c5.67871 0 10.2402 4.56152 10.2402 10.2402v368.64h-286.721zM193.6 304.96c0.266602 0.0253906 0.699219 0.0458984 0.96582 0.0458984c5.65332 0 10.2412 -4.58789 10.2412 -10.2412
c0 -0.100586 -0.00292969 -0.263672 -0.00683594 -0.364258v-256c0.000976562 -0.0400391 0.000976562 -0.105469 0.000976562 -0.145508c0 -5.65234 -4.58789 -10.2412 -10.2412 -10.2412c-5.65234 0 -10.2402 4.58887 -10.2402 10.2412
c0 0.0400391 0 0.105469 0.000976562 0.145508v256c-0.00195312 0.0673828 -0.00292969 0.177734 -0.00292969 0.246094c0 4.52734 3.58496 9.00391 8.00293 9.99316c0.347656 0.111328 0.920898 0.254883 1.2793 0.320312zM255.04 304.96
c0.265625 0.0253906 0.698242 0.0458984 0.96582 0.0458984c5.65234 0 10.2402 -4.58789 10.2402 -10.2412c0 -0.100586 -0.00292969 -0.263672 -0.00585938 -0.364258v-256c0 -0.0400391 0.000976562 -0.105469 0.000976562 -0.145508
c0 -5.65234 -4.58789 -10.2412 -10.2412 -10.2412s-10.2412 4.58887 -10.2412 10.2412c0 0.0400391 0.000976562 0.105469 0.000976562 0.145508v256c-0.000976562 0.0673828 -0.00292969 0.177734 -0.00292969 0.246094c0 4.52734 3.58594 9.00391 8.00293 9.99316
c0.347656 0.111328 0.920898 0.254883 1.28027 0.320312zM316.48 304.96c0.265625 0.0253906 0.698242 0.0458984 0.964844 0.0458984c5.65332 0 10.2412 -4.58789 10.2412 -10.2412c0 -0.100586 -0.00292969 -0.263672 -0.00683594 -0.364258v-256
c0.000976562 -0.0400391 0.000976562 -0.105469 0.000976562 -0.145508c0 -5.65234 -4.58789 -10.2412 -10.2402 -10.2412c-5.65332 0 -10.2412 4.58887 -10.2412 10.2412c0 0.0400391 0 0.105469 0.000976562 0.145508v256
c-0.00195312 0.0673828 -0.00292969 0.177734 -0.00292969 0.246094c0 4.52734 3.58496 9.00391 8.00293 9.99316c0.347656 0.111328 0.920898 0.254883 1.28027 0.320312z" />
    <glyph glyph-name="exit" unicode="&#xf13d;" 
d="M30.7197 448h348.16c16.8398 0 30.7197 -13.8691 30.7197 -30.7197v-81.9199l-20.4795 20.4795v61.4404c0 5.7793 -4.46973 10.2393 -10.2402 10.2393h-348.16c-5.78516 0 -10.2393 -4.4541 -10.2393 -10.2393v-450.561c0 -5.77051 4.45996 -10.2393 10.2393 -10.2393
h348.16c5.76465 0 10.2402 4.47461 10.2402 10.2393v61.4404l20.4795 20.4795v-81.9199c0 -16.8447 -13.874 -30.7197 -30.7197 -30.7197h-348.16c-16.8506 0 -30.7197 13.8809 -30.7197 30.7197v450.561c0 16.8438 13.876 30.7197 30.7197 30.7197zM387.52 313.92
c0.132812 0.00585938 0.347656 0.0117188 0.480469 0.0117188s0.347656 -0.00585938 0.480469 -0.0117188c0.233398 0.0195312 0.614258 0.0351562 0.849609 0.0351562c2.44824 0 5.79492 -1.44922 7.46973 -3.23535l111.681 -111.359l7.03906 -7.36035l-7.03906 -7.36035
l-111.681 -111.359c-1.69727 -2.10645 -5.26953 -3.81543 -7.97363 -3.81543c-5.65332 0 -10.2412 4.58789 -10.2412 10.2412c0 2.7041 1.70898 6.27734 3.81543 7.97363l94.0801 94.0801h-302.4c-0.132812 -0.00585938 -0.347656 -0.0107422 -0.480469 -0.0107422
c-5.6582 0 -10.251 4.59277 -10.251 10.251c0 5.39941 4.37793 9.9873 9.77148 10.2402c0.131836 0.00585938 0.347656 0.0107422 0.479492 0.0107422c0.132812 0 0.347656 -0.00488281 0.480469 -0.0107422h302.4l-94.0801 94.0801
c-1.81836 1.67871 -3.29297 5.04883 -3.29297 7.52344c0 4.71973 3.76855 9.2334 8.41211 10.0762z" />
    <glyph glyph-name="descending-sorting" unicode="&#xf136;" 
d="M408.64 366.4c0.266602 0.0244141 0.699219 0.0449219 0.96582 0.0449219c5.65332 0 10.2412 -4.58789 10.2412 -10.2412c0 -0.100586 -0.00292969 -0.263672 -0.00683594 -0.364258v-302.399l73.6006 73.5996c1.69629 2.10547 5.26953 3.81543 7.97363 3.81543
c5.65332 0 10.2412 -4.58789 10.2412 -10.2412c0 -2.70508 -1.70898 -6.27734 -3.81543 -7.97461l-90.8799 -91.1992l-7.36035 -7.04004l-7.35938 7.04004l-90.8799 91.1992c-1.72266 1.66699 -3.12012 4.96387 -3.12012 7.35938c0 5.6084 4.55176 10.1963 10.1602 10.2412
c2.40723 -0.0185547 5.7041 -1.45215 7.35938 -3.2002l73.6006 -73.5996v302.399c-0.00195312 0.0683594 -0.00292969 0.178711 -0.00292969 0.24707c0 4.52637 3.58496 9.00391 8.00293 9.99316c0.347656 0.111328 0.920898 0.254883 1.2793 0.320312zM7.36035 366.08
c0.131836 0.00585938 0.34668 0.0107422 0.479492 0.0107422s0.347656 -0.00488281 0.480469 -0.0107422c0.131836 0.00585938 0.34668 0.0107422 0.479492 0.0107422s0.347656 -0.00488281 0.480469 -0.0107422c0.131836 0.00585938 0.347656 0.0117188 0.479492 0.0117188
c0.132812 0 0.347656 -0.00585938 0.480469 -0.0117188h256c5.65234 0 10.2402 -4.58789 10.2402 -10.2402s-4.58789 -10.2402 -10.2402 -10.2402h-256c-0.395508 -0.0556641 -1.04102 -0.100586 -1.44043 -0.100586c-5.70801 0 -10.3408 4.63281 -10.3408 10.3408
c0 4.96191 3.98828 9.54883 8.90137 10.2402zM7.36035 284.16c0.131836 0.00585938 0.34668 0.0107422 0.479492 0.0107422s0.347656 -0.00488281 0.480469 -0.0107422c0.131836 0.00585938 0.34668 0.0107422 0.479492 0.0107422s0.347656 -0.00488281 0.480469 -0.0107422
c0.131836 0.00585938 0.347656 0.0107422 0.479492 0.0107422c0.132812 0 0.347656 -0.00488281 0.480469 -0.0107422h184.319c5.65332 0 10.2402 -4.58789 10.2402 -10.2402s-4.58691 -10.2402 -10.2402 -10.2402h-184.319
c-0.395508 -0.0556641 -1.04102 -0.100586 -1.44043 -0.100586c-5.70801 0 -10.3408 4.63281 -10.3408 10.3408c0 4.96191 3.98828 9.54883 8.90137 10.2402zM8.32031 202.24c0.131836 0.00585938 0.34668 0.0107422 0.479492 0.0107422
s0.347656 -0.00488281 0.480469 -0.0107422c0.131836 0.00585938 0.347656 0.0107422 0.479492 0.0107422c0.132812 0 0.347656 -0.00488281 0.480469 -0.0107422h143.359c5.65332 0 10.2402 -4.58789 10.2402 -10.2402s-4.58691 -10.2402 -10.2402 -10.2402h-143.359
c-0.264648 -0.0244141 -0.694336 -0.0449219 -0.959961 -0.0449219c-5.67773 0 -10.2852 4.60742 -10.2852 10.2852c0 5.16992 4.17773 9.75781 9.3252 10.2402zM8.32031 120c0.263672 0.0253906 0.694336 0.0458984 0.959961 0.0458984
s0.695312 -0.0205078 0.959961 -0.0458984h102.399c0.477539 0.0839844 1.25879 0.152344 1.74414 0.152344c5.55957 0 10.0713 -4.5127 10.0713 -10.0723s-4.51172 -10.0723 -10.0713 -10.0723c-0.485352 0 -1.2666 0.0683594 -1.74414 0.152344h-102.399
c-5.29004 0.256836 -9.58398 4.76367 -9.58398 10.0596c0 4.35742 3.43359 8.73828 7.66406 9.78027zM8.32031 38.0801c0.263672 0.0253906 0.694336 0.0458984 0.959961 0.0458984s0.695312 -0.0205078 0.959961 -0.0458984h61.4395
c0.336914 0.0410156 0.885742 0.0751953 1.22461 0.0751953c5.51758 0 9.99512 -4.47754 9.99512 -9.99512s-4.47754 -9.99512 -9.99512 -9.99512c-0.338867 0 -0.887695 0.0332031 -1.22461 0.0751953h-61.4395
c-0.0566406 -0.000976562 -0.148438 -0.00195312 -0.204102 -0.00195312c-5.51758 0 -9.99512 4.47754 -9.99512 9.99512c0 4.63867 3.70898 9.0498 8.2793 9.84668z" />
    <glyph glyph-name="pdf-2" unicode="&#xf156;" 
d="M61.4404 448h10.2393h225.28h4.16016l3.2002 -2.87988l143.359 -143.36l2.87988 -3.2002v-4.15918v-348.16v-10.2402h-10.2393h-368.641h-10.2393v10.2402v491.52v10.2402zM81.9199 427.52v-471.039h348.16v327.68h-133.12h-10.2402v10.2402v133.119h-204.8zM307.2 412.8
v-108.16h108.16zM177.28 197.12c12.3594 0 22.4658 -2.02539 29.4395 -8.63965c6.26758 -5.91895 9.28027 -15.1943 9.28027 -25.2803c0 -11.8379 -3.24316 -19.6533 -8.63965 -25.9199c-6.96387 -8.18164 -18.2373 -12.1602 -28.1602 -12.1602
c-1.91504 0 -3.37988 -0.18457 -5.12012 0v-45.7598h-18.5605v115.52c5.91895 1.39258 13.5791 2.24023 21.7607 2.24023zM251.52 197.12c13.5791 0 23.4375 -3.15918 30.4004 -9.60059c9.58496 -8.5293 15.3604 -23.8584 15.3604 -47.3594
c0 -25.2422 -6.16211 -41.2266 -15.04 -49.9199c-7.83398 -8.00781 -19.4258 -11.8398 -34.5605 -11.8398c-6.44043 0 -12.7822 0.583008 -16.96 1.2793v115.2c5.39648 1.39258 12.793 2.24023 20.7998 2.24023zM312.32 196.8h48.3193v-16.3193h-29.7598v-34.8809h27.8398
v-15.6797h-27.8398v-50.5596h-18.5596v117.439zM180.48 182.08c-2.61133 0 -4.83398 -0.4375 -6.40039 -0.959961v-40.6396c1.39258 -0.348633 2.56543 -0.320312 4.47949 -0.320312c12.1855 0 18.8809 8.3457 18.8809 21.7598c0 10.957 -4.42676 20.1602 -16.96 20.1602z
M254.4 182.08c-1.91504 0 -3.87402 0.0283203 -5.44043 -0.320312v-87.6797c1.56641 -0.348633 3.26172 -0.320312 4.48047 -0.320312c12.8711 0 24.6396 10.7236 24.6396 46.4004c0 26.6338 -7.49023 41.9199 -23.6797 41.9199z" />
    <glyph glyph-name="whatsapp-filled" unicode="&#xf17c;" 
d="M408.136 344.033c40.5811 -40.6113 62.9248 -94.5869 62.9043 -151.992c-0.0410156 -118.467 -96.4502 -214.846 -214.907 -214.846c-34.5596 0.0205078 -68.7305 8.38672 -99.1738 24.2285l-104.622 -27.4434
c-0.860352 -0.225586 -1.74121 -0.337891 -2.60156 -0.337891c-2.70312 0 -5.33496 1.0752 -7.28027 3.04102c-2.57031 2.60059 -3.56348 6.37988 -2.59082 9.91211l27.9248 101.96c-17.4082 31.6211 -26.583 67.3691 -26.5732 103.659
c0.0410156 118.446 96.4512 214.825 214.907 214.825c57.4668 -0.0205078 111.452 -22.4053 152.013 -63.0068zM356.25 119.07c4.25977 11.9404 4.24902 22.1807 2.96875 24.3105c-1.2793 2.12988 -4.68945 3.40918 -9.79883 5.96973
c-5.11035 2.55957 -30.2598 14.9297 -34.9492 16.6299c-4.69043 1.70996 -8.10059 2.55957 -11.5098 -2.56055c-3.41016 -5.12012 -13.21 -16.6299 -16.1895 -20.0498c-2.98047 -3.41016 -5.96973 -3.83984 -11.0801 -1.28027
c-5.10938 2.56055 -21.5957 7.95703 -41.124 25.375c-15.2061 13.5576 -25.4668 30.2998 -28.4463 35.4199s-0.317383 7.88477 2.24219 10.4346c2.30469 2.29395 5.11035 5.9707 7.66992 8.95996c2.56055 2.99023 3.41016 5.12012 5.10938 8.53027
c1.7002 3.41016 0.850586 6.40039 -0.429688 8.95996c-1.25977 2.57031 -11.4893 27.7305 -15.749 37.9697c-4.14746 9.97363 -8.36621 8.62207 -11.5098 8.77637c-2.97949 0.142578 -6.38965 0.183594 -9.7998 0.183594s-8.94922 -1.2793 -13.6396 -6.39941
c-4.68945 -5.12012 -17.8994 -17.4902 -17.8994 -42.6494c0 -25.1602 18.3291 -49.4697 20.8789 -52.8896c2.56055 -3.41016 36.0654 -55.0508 87.3574 -77.2002c12.2168 -5.2627 21.7295 -8.40625 29.1641 -10.7725c12.2471 -3.89062 23.4082 -3.33789 32.2148 -2.02734
c9.82031 1.46484 30.2598 12.3701 34.5195 24.3096z" />
    <glyph glyph-name="tripadvisor" unicode="&#xf173;" 
d="M256 342.5c68.0156 0 127.56 -18.2676 171 -47.5h85c-13.248 -15.5039 -23.084 -36.5996 -25.5 -51c15.2959 -21.0078 24.5 -47.0322 24.5 -75c0 -70.3838 -57.1162 -127.5 -127.5 -127.5c-39.8877 0 -75.6396 18.3115 -99 47c-10.2881 -12.6084 -28.5 -39.5 -28.5 -39.5
c-3.2002 6.51172 -18.9805 28.8643 -28.5 40c-23.376 -28.752 -59.0645 -47.5 -99 -47.5c-70.4004 0 -127.5 57.0996 -127.5 127.5c0 27.9844 9.2041 53.9756 24.5 75c-2.43164 14.3838 -12.2676 35.5283 -25.5 51h81c43.4404 29.248 106.936 47.5 175 47.5zM256 321
c-45.5361 0 -90.5361 -8.6123 -127 -24.5c70.2881 -0.0957031 126.984 -57.1963 127 -127.5c0.015625 69.04 54.9717 125.404 123.5 127.5c-36.4961 15.9521 -77.8838 24.5 -123.5 24.5zM128.5 272c-56.6719 0 -102.5 -46.3438 -102.5 -103
c0 -56.6719 45.8281 -102.5 102.5 -102.5c56.6562 0 102.5 45.8115 102.5 102.5c0 56.6562 -45.8281 103 -102.5 103zM383.5 272c-56.6719 0 -102.5 -46.3438 -102.5 -103c0 -56.6719 45.8281 -102.5 102.5 -102.5c56.6562 0 102.5 45.8115 102.5 102.5
c0 56.6562 -45.8438 103 -102.5 103zM127 231.5c34.1758 0 62 -27.8242 62 -62s-27.8242 -62 -62 -62c-34.1602 0 -62 27.8242 -62 62s27.8398 62 62 62zM383.5 231.5c34.1602 0 62 -27.8242 62 -62c0 -34.1602 -27.8398 -61.5 -62 -61.5c-34.1758 0 -62 27.3398 -62 61.5
c0 34.1758 27.8242 62 62 62zM127 212.5c-23.6797 0 -43 -19.3203 -43 -43s19.3203 -43 43 -43s43.0156 19.3203 43 43c0 23.6797 -19.3203 43 -43 43zM383.5 212.5c-23.6797 0 -43 -19.3203 -43 -43s19.3203 -42.5 43 -42.5s43 18.8359 43 42.5
c0 23.6963 -19.3203 43 -43 43zM124 190.5c11.4873 0 20.5 -9.5127 20.5 -21s-9.0127 -21 -20.5 -21s-21 9.5127 -21 21s9.5127 21 21 21zM380 190.5c11.4873 0 21 -9.5127 21 -21s-9.5127 -20.5 -21 -20.5s-20.5 9.0127 -20.5 20.5s9.0127 21 20.5 21z" />
    <glyph glyph-name="attention" unicode="&#xf104;" 
d="M256 417.28c124.298 0 225.28 -100.982 225.28 -225.28s-100.982 -225.28 -225.28 -225.28s-225.28 100.982 -225.28 225.28s100.982 225.28 225.28 225.28zM256 396.8c-113.229 0 -204.8 -91.5703 -204.8 -204.8s91.5703 -204.8 204.8 -204.8s204.8 91.5703 204.8 204.8
s-91.5703 204.8 -204.8 204.8zM243.84 301.44h23.3604c2.04785 0 4.16016 -0.768555 4.16016 -3.84082v-138.239c0 -2.04883 -1.08789 -4.16016 -4.16016 -4.16016h-23.3604c-2.04785 0 -4.16016 1.08789 -4.16016 4.16016v138.239
c0 2.04883 1.08789 3.84082 4.16016 3.84082zM243.84 117.12h24.3203c2.04785 0 4.16016 -0.768555 4.16016 -3.83984v-26.8799c0 -2.04883 -1.08789 -3.84082 -4.16016 -3.84082h-24.3203c-2.04785 0 -4.16016 0.768555 -4.16016 3.84082v26.8799
c0 2.04785 1.08789 3.83984 4.16016 3.83984z" />
    <glyph glyph-name="spinner-frame-5" unicode="&#xf169;" 
d="M256 404.923c19.5762 0 35.6924 -16.1152 35.6924 -35.6924c0 -19.5762 -16.1162 -35.6924 -35.6924 -35.6924s-35.6924 16.1162 -35.6924 35.6924c0 19.5771 16.1162 35.6924 35.6924 35.6924zM382.154 353.23c19.5762 0 35.0762 -15.5 35.0762 -35.0762
c0 -19.5771 -15.5 -35.6924 -35.0762 -35.6924c-19.5771 0 -35.6924 16.1152 -35.6924 35.6924c0 19.5762 16.1152 35.0762 35.6924 35.0762zM129.846 347.692c16.3145 0 29.5391 -13.2246 29.5391 -29.5381c0 -16.3145 -13.2246 -29.5391 -29.5391 -29.5391
c-16.3135 0 -29.5381 13.2246 -29.5381 29.5391c0 16.3135 13.2246 29.5381 29.5381 29.5381zM433.23 227.692c19.5771 0 35.6924 -16.1162 35.6924 -35.6924s-16.1152 -35.6924 -35.6924 -35.6924c-19.5762 0 -35.6924 16.1162 -35.6924 35.6924
s16.1162 35.6924 35.6924 35.6924zM78.7695 215.385c13.0508 0 23.3848 -10.334 23.3848 -23.3848s-10.334 -23.3848 -23.3848 -23.3848s-23.3848 10.334 -23.3848 23.3848s10.334 23.3848 23.3848 23.3848zM382.154 105.23c21.751 0 39.3838 -17.6328 39.3838 -39.3848
c0 -21.751 -17.6328 -39.3838 -39.3838 -39.3838c-21.752 0 -39.3848 17.6328 -39.3848 39.3838c0 21.752 17.6328 39.3848 39.3848 39.3848zM129.846 85.5381c10.876 0 19.6924 -8.81641 19.6924 -19.6924c0 -10.875 -8.81641 -19.6914 -19.6924 -19.6914
c-10.875 0 -19.6914 8.81641 -19.6914 19.6914c0 10.876 8.81641 19.6924 19.6914 19.6924zM249.846 62.1543c27.1895 0 49.2314 -22.042 49.2314 -49.2314s-22.042 -49.2305 -49.2314 -49.2305c-27.1885 0 -49.2305 22.041 -49.2305 49.2305
s22.042 49.2314 49.2305 49.2314z" />
    <glyph glyph-name="download-from-cloud" unicode="&#xf13a;" 
d="M296.96 401.6c74.2549 0 134.72 -60.4756 134.72 -134.72c0 -2.56055 -0.479492 -4.8916 -0.639648 -7.36035c45.2021 -5.33301 80.96 -42.3672 80.96 -88.96c0 -50.2197 -40.9707 -91.1992 -91.2002 -91.1992h-93.1201
c-0.0400391 -0.000976562 -0.104492 -0.000976562 -0.144531 -0.000976562c-5.65332 0 -10.2412 4.58789 -10.2412 10.2402c0 5.65332 4.58789 10.2412 10.2412 10.2412c0.0400391 0 0.104492 0 0.144531 -0.000976562h93.1201c39.166 0 70.7197 31.5654 70.7197 70.7197
c0 39.1553 -31.5557 70.7207 -70.7197 70.7207h-0.639648c-5.52051 0.129883 -10.001 4.71582 -10.001 10.2383c0 0.354492 0.0361328 0.928711 0.0810547 1.28125c0.591797 4.79199 0.959961 9.41992 0.959961 14.0801c0 63.1768 -51.0537 114.24 -114.24 114.24
c-49.2246 0 -91.0967 -31.3613 -107.2 -74.8799c-1.4248 -3.54297 -5.68164 -6.41895 -9.50098 -6.41895c-2.29492 0 -5.49316 1.29883 -7.13867 2.89844c-9.28906 9.30664 -22.2578 15.04 -36.4805 15.04c-28.4531 0 -51.1992 -22.7578 -51.1992 -51.2002
c0 -0.0664062 -0.0517578 -0.805664 0 -2.23926c0.00390625 -0.113281 0.0078125 -0.296875 0.0078125 -0.410156c0 -4.2373 -3.30078 -8.6416 -7.36816 -9.83008c-33.1865 -9.17285 -57.5996 -39.6279 -57.5996 -75.8398c0 -43.4961 34.8926 -78.4004 78.3994 -78.4004
h85.4404c0.0400391 0.000976562 0.104492 0.000976562 0.144531 0.000976562c5.65332 0 10.2412 -4.58789 10.2412 -10.2412c0 -5.65234 -4.58789 -10.2402 -10.2412 -10.2402c-0.0400391 0 -0.104492 0 -0.144531 0.000976562h-85.4404
c-54.5713 0 -98.8799 44.3174 -98.8799 98.8799c0 42.7939 27.7676 78.3857 65.9199 92.1602c2.13672 37.6201 32.5752 67.8398 70.7197 67.8398c15.0391 0 28.4365 -5.80664 40 -13.7598c21.7324 45.1738 66.918 77.1191 120.32 77.1191zM255.04 192.32
c0.265625 0.0244141 0.698242 0.0449219 0.96582 0.0449219c5.65234 0 10.2402 -4.58789 10.2402 -10.2402c0 -0.100586 -0.00292969 -0.264648 -0.00585938 -0.365234v-179.84l33.5996 33.5996c1.68262 1.68359 4.98047 3.04883 7.36035 3.04883
c5.74512 0 10.4082 -4.66309 10.4082 -10.4082c0 -2.37988 -1.36523 -5.67773 -3.04883 -7.36035l-51.1992 -51.2002l-7.36035 -7.04004l-7.36035 7.04004l-51.1992 51.2002c-1.81836 1.67871 -3.29297 5.0498 -3.29297 7.52344c0 4.71973 3.76855 9.23438 8.41211 10.0771
c0.609375 0.135742 1.61035 0.246094 2.23438 0.246094c2.39941 0 5.69922 -1.40039 7.36621 -3.12695l33.5996 -33.5996v179.84c-0.000976562 0.0683594 -0.00292969 0.178711 -0.00292969 0.24707c0 4.52637 3.58594 9.00391 8.00293 9.99316
c0.347656 0.111328 0.920898 0.254883 1.28027 0.320312z" />
    <glyph glyph-name="sorting-options" unicode="&#xf161;" 
d="M256 376.32c18.9766 0 34.7822 -13.1094 39.3604 -30.7207h185.92c0.0400391 0.000976562 0.104492 0.000976562 0.144531 0.000976562c5.65332 0 10.2412 -4.58789 10.2412 -10.2402c0 -5.65332 -4.58789 -10.2412 -10.2412 -10.2412
c-0.0400391 0 -0.104492 0 -0.144531 0.000976562h-185.92c-4.57812 -17.6113 -20.3838 -30.7197 -39.3604 -30.7197s-34.7822 13.1084 -39.3604 30.7197h-185.92c-0.263672 -0.0253906 -0.694336 -0.0449219 -0.959961 -0.0449219
c-5.67676 0 -10.2842 4.60742 -10.2842 10.2852c0 5.16992 4.17676 9.75684 9.32422 10.2393c0.132812 0.00683594 0.347656 0.0117188 0.480469 0.0117188c0.131836 0 0.347656 -0.00488281 0.479492 -0.0117188
c0.132812 0.00683594 0.347656 0.0117188 0.480469 0.0117188c0.131836 0 0.347656 -0.00488281 0.479492 -0.0117188h185.92c4.57812 17.6113 20.3838 30.7207 39.3604 30.7207zM256 355.84c-10.667 0 -19.3779 -7.89844 -20.4805 -18.2402
c0.118164 -0.567383 0.213867 -1.49902 0.213867 -2.08008c0 -0.580078 -0.0957031 -1.51172 -0.213867 -2.0791c0.958008 -10.498 9.7041 -18.5605 20.4805 -18.5605c10.2217 0 18.5137 7.25684 20.1602 16.96c-0.375977 0.981445 -0.680664 2.62988 -0.680664 3.67969
c0 1.05078 0.304688 2.69922 0.680664 3.68066c-1.76953 9.54688 -10.0479 16.6396 -20.1602 16.6396zM399.36 232.96c18.9766 0 34.7812 -13.1084 39.3594 -30.7197h42.5605c0.0400391 0 0.104492 0.000976562 0.144531 0.000976562
c5.65332 0 10.2412 -4.58789 10.2412 -10.2412s-4.58789 -10.2412 -10.2412 -10.2412c-0.0400391 0 -0.104492 0.000976562 -0.144531 0.000976562h-42.5605c-4.57812 -17.6113 -20.3828 -30.7197 -39.3594 -30.7197c-18.9775 0 -34.7822 13.1084 -39.3604 30.7197h-329.28
c-0.131836 -0.00585938 -0.347656 -0.0107422 -0.479492 -0.0107422c-5.65918 0 -10.252 4.59277 -10.252 10.251c0 5.39941 4.37793 9.9873 9.77148 10.2402c0.132812 0.00585938 0.347656 0.0107422 0.480469 0.0107422
c0.131836 0 0.347656 -0.00488281 0.479492 -0.0107422h329.28c4.57812 17.6113 20.3828 30.7197 39.3604 30.7197zM399.36 212.48c-10.668 0 -19.3779 -7.89844 -20.4805 -18.2402c0.118164 -0.568359 0.213867 -1.5 0.213867 -2.08008
s-0.0957031 -1.51172 -0.213867 -2.08008c0.958008 -10.498 9.7041 -18.5605 20.4805 -18.5605c10.6582 0 19.0469 7.91113 20.1592 18.2402c-0.157227 0.65332 -0.28418 1.72852 -0.28418 2.40039s0.126953 1.74707 0.28418 2.39941
c-1.25195 10.1738 -9.61035 17.9209 -20.1592 17.9209zM143.36 89.5996c18.9766 0 34.7812 -13.1084 39.3594 -30.7197h298.561c0.0400391 0.000976562 0.104492 0.000976562 0.144531 0.000976562c5.65332 0 10.2412 -4.58789 10.2412 -10.2412
c0 -5.65234 -4.58789 -10.2402 -10.2412 -10.2402c-0.0400391 0 -0.104492 0 -0.144531 0.000976562h-298.561c-4.57812 -17.6113 -20.3828 -30.7207 -39.3594 -30.7207c-18.9775 0 -34.7822 13.1094 -39.3604 30.7207h-73.2803
c-0.263672 -0.0253906 -0.694336 -0.0449219 -0.959961 -0.0449219c-5.67676 0 -10.2842 4.60742 -10.2842 10.2842c0 5.16992 4.17676 9.75781 9.32422 10.2402c0.132812 0.00585938 0.347656 0.0117188 0.480469 0.0117188
c0.131836 0 0.347656 -0.00585938 0.479492 -0.0117188c0.132812 0.00585938 0.347656 0.0117188 0.480469 0.0117188c0.131836 0 0.347656 -0.00585938 0.479492 -0.0117188h73.2803c4.57812 17.6113 20.3828 30.7197 39.3604 30.7197zM143.36 69.1201
c-10.668 0 -19.3779 -7.89844 -20.4805 -18.2402c0.118164 -0.568359 0.213867 -1.5 0.213867 -2.08008s-0.0957031 -1.51172 -0.213867 -2.08008c0.958008 -10.498 9.7041 -18.5596 20.4805 -18.5596c10.2217 0 18.5137 7.25684 20.1592 16.96
c0 0.0439453 -0.000976562 0.115234 -0.000976562 0.160156c0 0.0439453 0.000976562 0.115234 0.000976562 0.160156c-0.342773 0.94043 -0.621094 2.51758 -0.621094 3.51953s0.27832 2.5791 0.621094 3.52051c-0.0185547 0.102539 0.0214844 0.216797 0 0.319336
c-1.8877 9.39062 -10.1562 16.3203 -20.1592 16.3203z" />
    </font>
</defs>
</svg>
